<svg width="16" height="16" viewBox="0 0 16 16" fill="none" xmlns="http://www.w3.org/2000/svg">
<path fill-rule="evenodd" clip-rule="evenodd" d="M13.454 5.10899C13.3352 5.04849 13.1961 5.02157 13 5.00959V2H3V5.00959C2.80389 5.02157 2.66476 5.04849 2.54601 5.10899C2.35785 5.20487 2.20487 5.35785 2.10899 5.54601C2 5.75992 2 6.03995 2 6.6V11.4C2 11.9601 2 12.2401 2.10899 12.454C2.20487 12.6422 2.35785 12.7951 2.54601 12.891C2.75992 13 3.03995 13 3.6 13H12.4C12.9601 13 13.2401 13 13.454 12.891C13.6422 12.7951 13.7951 12.6422 13.891 12.454C14 12.2401 14 11.9601 14 11.4V6.6C14 6.03995 14 5.75992 13.891 5.54601C13.7951 5.35785 13.6422 5.20487 13.454 5.10899ZM7.9956 9.3961L4 7.54722V3H12V7.50428L7.9956 9.3961ZM5 4H11V5H5V4ZM9 6H5V7H9V6Z" fill="#626873"/>
</svg>
