<svg width="16" height="16" viewBox="0 0 16 16" fill="none" xmlns="http://www.w3.org/2000/svg">
<path fill-rule="evenodd" clip-rule="evenodd" d="M8.19148 2C9.67725 2.20726 11.0232 2.87897 12.0869 3.94273C13.0958 4.95405 13.7575 6.22757 13.9997 7.63093L13.0783 7.78824C12.871 6.57716 12.2992 5.47594 11.4277 4.60446C10.5088 3.68803 9.34513 3.10621 8.06163 2.92642L8.19148 2ZM11.1231 9.93823C10.731 9.55119 10.2416 9.55119 9.85204 9.93823L9.852 9.93828L9.85187 9.9384C9.55477 10.233 9.25768 10.5276 8.96558 10.8272C8.88567 10.9096 8.81825 10.9271 8.72086 10.8721C8.64467 10.8306 8.56651 10.7922 8.48841 10.7538C8.36944 10.6953 8.2506 10.6368 8.13904 10.5675C7.27755 10.0256 6.55589 9.32895 5.91664 8.54486C5.59951 8.15532 5.31733 7.7383 5.12006 7.26885C5.08011 7.17396 5.0876 7.11153 5.16501 7.03412C5.41954 6.78815 5.66857 6.53669 5.91838 6.28443L6.04399 6.15765C6.45101 5.74813 6.45101 5.26868 6.04149 4.85667C5.92538 4.73931 5.80927 4.62319 5.69315 4.50708C5.57704 4.39096 5.46092 4.27485 5.3448 4.15748C5.2649 4.07757 5.18527 3.99739 5.10564 3.91721C4.94638 3.75684 4.78712 3.59647 4.62564 3.43832C4.2336 3.05627 3.74417 3.05627 3.35463 3.44082C3.23474 3.55871 3.11684 3.6778 2.99903 3.79681L2.99903 3.79682C2.82239 3.97526 2.64592 4.15352 2.46317 4.32728C2.181 4.59447 2.03866 4.92159 2.0087 5.30364C1.96125 5.92542 2.11357 6.51223 2.32832 7.08407C2.76781 8.26768 3.43703 9.31896 4.24858 10.2828C5.3448 11.5863 6.65328 12.6176 8.18399 13.3617C8.87318 13.6963 9.58735 13.9535 10.3639 13.996C10.8983 14.026 11.3628 13.8911 11.7348 13.4741C11.9022 13.287 12.0837 13.1107 12.2649 12.9345L12.265 12.9345C12.3595 12.8427 12.454 12.7508 12.5464 12.6576C12.9459 12.253 12.9484 11.7636 12.5514 11.3641C12.0769 10.8871 11.6 10.4127 11.1231 9.93823ZM10.6461 7.94806L11.5675 7.79074C11.4227 6.94423 11.0232 6.17762 10.4164 5.56834C9.77463 4.92658 8.96308 4.52206 8.06912 4.3972L7.93927 5.32362C8.63097 5.42101 9.26023 5.73314 9.75715 6.23006C10.2266 6.69951 10.5337 7.29382 10.6461 7.94806Z" fill="#626873"/>
</svg>
