<svg width="16" height="16" viewBox="0 0 16 16" fill="none" xmlns="http://www.w3.org/2000/svg">
<path fill-rule="evenodd" clip-rule="evenodd" d="M8.85711 1.14282H7.14282L6.92798 2.96899C6.31297 3.09939 5.73857 3.33972 5.2263 3.66842L3.75739 2.54514L2.54521 3.75733L3.66848 5.22622C3.345 5.73031 3.10712 6.29457 2.97534 6.89849L1.14282 7.14282V8.85711L2.97534 9.10144C3.10712 9.70536 3.345 10.2696 3.66848 10.7737L2.54522 12.2426L3.75741 13.4548L5.2263 12.3315C5.73038 12.655 6.29461 12.8928 6.89849 13.0246L7.14282 14.8571H8.85711L9.10144 13.0246C9.7155 12.8906 10.2886 12.6469 10.7991 12.3151L12.2427 13.4548L13.4549 12.2426L12.3151 10.799C12.6522 10.2803 12.8984 9.69712 13.0309 9.07195L14.8571 8.85711V7.14282L13.0309 6.92798C12.8984 6.30281 12.6522 5.71961 12.3151 5.20097L13.4549 3.75732L12.2427 2.54514L10.7991 3.68484C10.2804 3.34771 9.69715 3.10156 9.07195 2.96899L8.85711 1.14282ZM9.71425 7.99997C9.71425 8.94674 8.94674 9.71425 7.99997 9.71425C7.05319 9.71425 6.28568 8.94674 6.28568 7.99997C6.28568 7.05319 7.05319 6.28568 7.99997 6.28568C8.94674 6.28568 9.71425 7.05319 9.71425 7.99997Z" fill="#626873"/>
</svg>
