<svg width="16" height="16" viewBox="0 0 16 16" fill="none" xmlns="http://www.w3.org/2000/svg">
<path fill-rule="evenodd" clip-rule="evenodd" d="M7.99996 1.14282C11.7871 1.14282 14.8571 4.21287 14.8571 7.99996C14.8571 11.7871 11.7871 14.8571 7.99996 14.8571C4.21287 14.8571 1.14282 11.7871 1.14282 7.99996C1.14282 4.21287 4.21287 1.14282 7.99996 1.14282ZM8.00003 11.4285C7.00125 11.4285 6.06233 11.6848 5.2454 12.1352C4.90413 12.3233 4.90642 12.816 5.24574 13.0076C5.25746 13.0142 5.26882 13.0205 5.27976 13.0265C6.08861 13.4651 7.01523 13.7143 8.00003 13.7143C8.9044 13.7143 9.75969 13.5042 10.5198 13.1301L10.5477 13.1161C10.9914 12.8896 10.9936 12.249 10.5479 12.0266C9.78078 11.6438 8.91555 11.4285 8.00003 11.4285ZM2.28568 7.99997C2.28568 7.68809 2.57482 7.45259 2.88003 7.51676C2.95448 7.53242 3.02143 7.54934 3.06925 7.56684C3.7447 7.81397 4.29322 8.37517 4.49351 9.12266C4.67154 9.78708 4.53771 10.4616 4.18176 10.9908C4.15286 11.0337 4.11468 11.081 4.07145 11.1298C3.82015 11.413 3.3653 11.3639 3.16326 11.0437C2.60715 10.1623 2.28568 9.11866 2.28568 7.99997ZM13.7148 7.99997C13.7148 7.68778 13.4261 7.45366 13.1214 7.52162C13.0086 7.54677 12.9005 7.5766 12.8207 7.61058C12.1963 7.87645 11.6962 8.4164 11.507 9.12266C11.3148 9.84 11.4861 10.5691 11.908 11.1144L11.9183 11.1275C12.1606 11.4279 12.6371 11.3622 12.8425 11.0354C13.3954 10.1557 13.7148 9.11514 13.7148 7.99997ZM2.99962 5.23208C3.97422 3.47494 5.84816 2.28568 7.99986 2.28568C10.1453 2.28568 12.0146 3.46801 12.9916 5.21663C13.0403 5.30363 13.0947 5.41741 13.1486 5.53788C13.2684 5.80561 12.9948 6.06584 12.7204 5.96226C11.3425 5.44217 9.72709 5.14282 7.99986 5.14282C6.33094 5.14282 4.76646 5.4223 3.41969 5.91046C3.09044 6.0298 2.76261 5.71819 2.91319 5.402C2.94311 5.33919 2.97232 5.2813 2.99962 5.23208Z" fill="#626873"/>
</svg>
