<svg width="16" height="16" viewBox="0 0 16 16" fill="none" xmlns="http://www.w3.org/2000/svg">
<path fill-rule="evenodd" clip-rule="evenodd" d="M9 1H7L6.39089 2.21821C5.91787 2.34958 5.46836 2.53743 5.05007 2.77405L3.75736 2.34315L2.34315 3.75736L2.77405 5.05007C2.53743 5.46836 2.34958 5.91787 2.21821 6.39089L1 7V9L2.21821 9.60911C2.34958 10.0821 2.53743 10.5316 2.77405 10.9499L2.34315 12.2426L3.75736 13.6569L5.05007 13.226C5.46836 13.4626 5.91787 13.6504 6.39089 13.7818L7 15H9L9.58579 13.8284L8.70767 12.9503C8.47649 12.9831 8.24022 13 8 13C5.23858 13 3 10.7614 3 8C3 5.23858 5.23858 3 8 3C10.7614 3 13 5.23858 13 8C13 8.24022 12.9831 8.47649 12.9503 8.70767L13.8284 9.58579L15 9V7L13.7818 6.39089C13.6504 5.91787 13.4626 5.46836 13.226 5.05007L13.6569 3.75736L12.2426 2.34315L10.9499 2.77405C10.5316 2.53743 10.0821 2.34958 9.60911 2.21821L9 1ZM12 8C12 8.74181 11.7981 9.43645 11.4462 10.032L13.4142 12C13.8047 12.3905 13.8047 13.0237 13.4142 13.4142C13.0237 13.8047 12.3905 13.8047 12 13.4142L10.032 11.4462C9.43645 11.7981 8.74181 12 8 12C5.79086 12 4 10.2091 4 8C4 5.79086 5.79086 4 8 4C10.2091 4 12 5.79086 12 8ZM10 8C10 9.10457 9.10457 10 8 10C6.89543 10 6 9.10457 6 8C6 6.89543 6.89543 6 8 6C9.10457 6 10 6.89543 10 8Z" fill="#212325"/>
</svg>
