<svg width="58" height="58" viewBox="0 0 58 58" fill="none" xmlns="http://www.w3.org/2000/svg">
<path opacity="0.8" fill-rule="evenodd" clip-rule="evenodd" d="M27.1081 7.19542C27.1851 7.10492 27.2685 7.01994 27.3577 6.94112L27.5263 6.80447C28.5632 6.03458 30.0429 6.16285 30.9182 7.1263L31.3154 7.55614C33.3551 9.72552 35.2836 11.1797 37.0818 11.9309C39.1565 12.7978 41.4952 13.2283 44.107 13.2173L44.4318 13.2296C46.4181 13.3879 47.9579 15.0498 47.912 17.0416L47.8751 18.4367C47.6003 27.6487 46.7696 33.8809 45.3321 37.2322C43.4277 41.6723 40.2196 45.3457 36.293 48.1652C33.4531 50.2043 30.2564 51.6957 29.0092 51.6957C27.786 51.6957 24.5707 50.1107 21.6843 47.9949C17.7613 45.1192 14.56 41.4874 12.6911 37.2431C11.1787 33.8085 10.3371 27.4879 10.1155 18.1864L10.0874 16.8039C10.0535 14.7876 11.6478 13.1085 13.683 13.0096L14.3013 12.9761C17.0841 12.8087 19.3323 12.4448 21.0361 11.8942C22.916 11.2867 24.9516 9.73024 27.1081 7.19542ZM29.0437 8.79671L28.679 9.21808C26.3706 11.8378 24.0952 13.5275 21.823 14.2618C19.8895 14.8866 17.4368 15.2836 14.4477 15.4634L13.8146 15.4977C13.1338 15.5308 12.6024 16.0905 12.6137 16.7626C12.7776 26.5087 13.5954 33.0413 15.0086 36.2508C16.6836 40.0547 19.5983 43.3614 23.1916 45.9953C25.6656 47.8088 28.4962 49.2043 29.0093 49.2043C29.5771 49.2043 32.3653 47.9034 34.8058 46.1511C38.3851 43.5809 41.2948 40.2492 43.0052 36.2617C44.3176 33.2018 45.1237 26.9709 45.369 17.6775L45.3862 16.9829C45.402 16.295 44.8494 15.7247 44.1519 15.7091L43.4912 15.7037C40.7936 15.6482 38.326 15.1567 36.0961 14.225C33.9316 13.3206 31.7268 11.6582 29.4554 9.24222L29.0437 8.79671Z" fill="white"/>
<path d="M38.1743 21.8257L39.9997 23.5655L27.9828 36.1742C27.5427 36.6359 26.8353 36.6913 26.3316 36.3264L26.2102 36.2265L20.575 30.9721L22.2947 29.1277L27.0179 33.5315L38.1743 21.8257Z" fill="#BE0318"/>
</svg>
