<svg width="239" height="38" viewBox="0 0 239 38" fill="none" xmlns="http://www.w3.org/2000/svg">
<path fill-rule="evenodd" clip-rule="evenodd" d="M67.4098 33.0819H74.2455L75.8265 30.299H67.4098V33.0819ZM120.967 30.4022H115.643V27.6883H120.967C121.825 27.6883 122.444 27.8947 122.444 29.0286C122.444 29.9214 122.067 30.4022 120.967 30.4022ZM115.643 23.1184H120.484C121.206 23.1184 121.517 23.4965 121.517 24.2186C121.517 24.9738 121.035 25.353 120.484 25.353H115.643V23.1184ZM123.092 25.6244C123.892 25.2804 124.574 24.7367 124.574 23.3596C124.574 20.7484 122.376 20.4403 120.828 20.4403H112.653V33.0819H120.967C124.779 33.0819 125.57 30.9863 125.57 29.0618C125.57 26.8962 124.34 25.9989 123.092 25.6244ZM148.279 33.0819H155.114L156.696 30.299H148.279V33.0819ZM67.4098 25.353V28.1344H77.0621L78.6774 25.353H67.4098ZM135.978 30.4022H131.548V27.5845H135.978C136.494 27.5845 137.284 27.7225 137.284 28.9929C137.284 30.161 136.633 30.4022 135.978 30.4022ZM136.15 24.9738H131.548V20.4403H128.524V33.0819H136.118C138.177 33.0819 140.308 31.948 140.308 28.9602C140.308 25.0423 137.559 24.9738 136.15 24.9738ZM141.853 33.0819H144.843V20.4403H141.853V33.0819ZM85.2044 20.4403L77.9558 33.0819H81.5282L86.3035 24.7337L91.1131 33.0819H94.8567L87.6086 20.4403H85.2044ZM102.449 30.4712C99.5297 30.4712 98.2931 28.7874 98.2931 26.7261C98.2931 24.4593 99.702 22.9472 102.449 22.9472C105.543 22.9472 106.606 24.4593 106.606 26.7261C106.606 29.4405 104.58 30.4712 102.449 30.4712ZM102.485 20.1306C97.4341 20.1306 95.0294 23.2221 95.0294 26.6913C95.0294 30.299 97.3652 33.2536 102.485 33.2536C104.718 33.2536 109.871 32.2229 109.871 26.6913C109.871 23.0852 107.569 20.1306 102.485 20.1306ZM50.0547 30.299L54.8295 21.9513L59.6401 30.299H50.0547ZM56.1699 17.6567H53.6961L46.4486 30.299H44.6284V36.7917H47.512V33.0819H62.353V36.7917H65.2386V30.299H63.4184L56.1699 17.6567ZM81.4935 20.4403H67.4098V23.2221H79.8792L81.4935 20.4403ZM148.279 25.353V28.1344H157.931L159.546 25.353H148.279ZM162.362 20.4403H148.279V23.2221H160.749L162.362 20.4403ZM235.809 20.4403L228.662 28.6505V20.4403H225.639V33.0819H228.182L235.465 24.8032V33.0819H238.488V20.4403H235.809ZM166.074 20.4403L158.824 33.0819H162.397L167.173 24.7337L171.982 33.0819H175.729L168.478 20.4403H166.074ZM202.897 25.353H196.267V20.4403H193.244V33.0819H196.267V28.1344H202.897V33.0819H205.921V20.4403H202.897V25.353ZM212.378 28.6505V20.4403H209.355V33.0819H211.897L219.18 24.8032V33.0819H222.203V20.4403H219.524L212.378 28.6505ZM179.983 28.5815V20.4403H176.958V33.0819H179.502L186.784 24.8711V33.0819H189.808V20.4403H187.267L179.983 28.5815Z" fill="#1A1A18"/>
<path fill-rule="evenodd" clip-rule="evenodd" d="M22.2418 26.9359L7.87914 20.7206L4.82949 26.0023L20.9888 29.1082L22.2418 26.9359ZM20.2407 33.1027H25.0176L29.2149 25.8337L33.4115 33.1027H38.1873L29.2149 17.5602L20.2407 33.1027ZM4.11613 27.2395L0.729736 33.1027H18.6827L20.2745 30.3448L4.11613 27.2395ZM28.4356 16.2112L19.4589 0.662964L16.0689 6.53589L26.8413 18.972L28.4356 16.2112ZM26.1275 20.2101L15.354 7.772L12.308 13.0506L24.8735 22.3819L26.1275 20.2101ZM24.1943 23.5541L11.6268 14.229L8.55775 19.5453L22.922 25.7622L24.1943 23.5541Z" fill="#F9B000"/>
</svg>
