<svg width="58" height="58" viewBox="0 0 58 58" fill="none" xmlns="http://www.w3.org/2000/svg">
<path opacity="0.8" fill-rule="evenodd" clip-rule="evenodd" d="M47.9072 12.3353C47.764 8.9804 44.9988 6.30444 41.6087 6.30444H13.8695L13.5961 6.31027C10.2411 6.45346 7.56519 9.21862 7.56519 12.6088V40.3479L7.57101 40.6214C7.7142 43.9763 10.4794 46.6523 13.8695 46.6523H23.9565V44.1305H13.8695L13.6473 44.1241C11.6616 44.0091 10.0869 42.3624 10.0869 40.3479V12.6088L10.0933 12.3865C10.2084 10.4009 11.8551 8.82618 13.8695 8.82618H41.6087L41.8309 8.8326C43.8166 8.94765 45.3913 10.5943 45.3913 12.6088V25.2175H47.913V12.6088L47.9072 12.3353ZM17.6521 12.6088H20.1739V17.0218H24.5869V19.5436H20.1739V23.9566H17.6521V19.5436H13.2391V17.0218H17.6521V12.6088ZM23.8166 32.8144L20.697 35.934L23.8166 39.0554L22.0335 40.8385L18.913 37.718L15.7925 40.8385L14.0094 39.0554L17.1299 35.9349L14.0094 32.8144L15.7925 31.0312L18.913 34.1517L22.0335 31.0312L23.8166 32.8144ZM40.9782 19.5436V17.0218H29.6304V19.5436H40.9782Z" fill="white"/>
<path fill-rule="evenodd" clip-rule="evenodd" d="M39.087 26.4783C32.1234 26.4783 26.4783 32.1234 26.4783 39.087C26.4783 46.0506 32.1234 51.6957 39.087 51.6957C46.0506 51.6957 51.6957 46.0506 51.6957 39.087C51.6957 32.1234 46.0506 26.4783 39.087 26.4783ZM39.087 29C44.6578 29 49.1739 33.5161 49.1739 39.087C49.1739 44.6578 44.6578 49.1739 39.087 49.1739C33.5161 49.1739 29 44.6578 29 39.087C29 33.5161 33.5161 29 39.087 29ZM44.1304 35.3044V37.8261H34.0435V35.3044H44.1304ZM44.1304 40.3478V42.8696H34.0435V40.3478H44.1304Z" fill="#BE0318"/>
</svg>
