<svg width="211" height="25" viewBox="0 0 211 25" fill="none" xmlns="http://www.w3.org/2000/svg">
<path fill-rule="evenodd" clip-rule="evenodd" d="M131.283 23.0518C132.115 22.16 132.531 20.9364 132.531 19.381C132.531 17.8257 132.115 16.601 131.283 15.707C130.452 14.813 129.312 14.366 127.864 14.366C126.412 14.366 125.273 14.8151 124.446 15.7134C123.618 16.6118 123.205 17.8343 123.205 19.381C123.205 20.9148 123.618 22.1331 124.446 23.0357C125.273 23.9383 126.412 24.3896 127.864 24.3896C129.312 24.3896 130.452 23.9437 131.283 23.0518ZM129.858 17.9108C129.977 18.3136 130.036 18.8015 130.036 19.3746C130.036 19.9778 129.98 20.4657 129.868 20.8384C129.756 21.2111 129.596 21.5374 129.39 21.8175C129.196 22.076 128.965 22.2666 128.698 22.3894C128.431 22.5122 128.155 22.5736 127.871 22.5736C127.591 22.5736 127.319 22.5165 127.057 22.4023C126.794 22.2882 126.559 22.0975 126.352 21.8304C126.15 21.5676 125.99 21.2412 125.874 20.8513C125.758 20.4614 125.699 19.9713 125.699 19.381C125.699 18.808 125.761 18.3147 125.884 17.9011C126.006 17.4875 126.167 17.1557 126.365 16.9058C126.589 16.6344 126.822 16.4459 127.063 16.3403C127.304 16.2348 127.574 16.182 127.871 16.182C128.151 16.182 128.421 16.2391 128.682 16.3532C128.943 16.4674 129.176 16.6559 129.383 16.9187C129.581 17.1772 129.74 17.5079 129.858 17.9108Z" fill="#D02D42"/>
<path fill-rule="evenodd" clip-rule="evenodd" d="M122.094 22.4088C122.273 22.0146 122.362 21.5826 122.362 21.113C122.362 20.6477 122.287 20.2201 122.136 19.8302C121.985 19.4402 121.744 19.116 121.412 18.8575C121.05 18.5732 120.641 18.389 120.184 18.305C119.727 18.2209 119.21 18.1789 118.633 18.1789H117.043V16.4017H121.632V14.5663H114.639V24.1893H118.594C119.21 24.1893 119.733 24.1279 120.162 24.0051C120.59 23.8823 120.99 23.6722 121.36 23.375C121.671 23.1251 121.915 22.803 122.094 22.4088ZM119.816 20.7317C119.85 20.8739 119.867 21.0247 119.867 21.1841C119.867 21.5762 119.725 21.8778 119.441 22.0889C119.157 22.3 118.767 22.4055 118.271 22.4055H117.043V19.9562H118.271C118.629 19.9562 118.909 19.9906 119.111 20.0596C119.314 20.1285 119.473 20.2212 119.59 20.3375C119.706 20.4581 119.781 20.5895 119.816 20.7317Z" fill="#D02D42"/>
<path d="M110.117 24.3767C108.673 24.3767 107.527 23.9405 106.678 23.068C105.83 22.1955 105.405 20.9687 105.405 19.3875C105.405 17.8623 105.831 16.6462 106.682 15.7393C107.533 14.8324 108.68 14.3789 110.123 14.3789C110.507 14.3789 110.851 14.4004 111.157 14.4435C111.463 14.4866 111.756 14.5469 112.036 14.6245C112.256 14.6891 112.495 14.7774 112.753 14.8895C113.012 15.0015 113.221 15.0984 113.38 15.1803V17.4745H113.135C113.018 17.3711 112.872 17.2473 112.695 17.1029C112.519 16.9586 112.318 16.8175 112.094 16.6796C111.87 16.5418 111.623 16.4244 111.354 16.3274C111.085 16.2305 110.804 16.182 110.511 16.182C110.162 16.182 109.842 16.2369 109.551 16.3468C109.26 16.4567 108.983 16.6473 108.721 16.9187C108.479 17.1643 108.282 17.4961 108.129 17.914C107.976 18.3319 107.9 18.8252 107.9 19.394C107.9 19.9928 107.98 20.4959 108.139 20.903C108.298 21.3102 108.507 21.6387 108.766 21.8886C109.016 22.1298 109.295 22.3043 109.603 22.412C109.911 22.5198 110.218 22.5736 110.524 22.5736C110.843 22.5736 111.146 22.5208 111.435 22.4153C111.724 22.3097 111.967 22.1923 112.165 22.0631C112.381 21.9295 112.57 21.7938 112.734 21.6559C112.898 21.518 113.04 21.3953 113.161 21.2875H113.38V23.5495C113.204 23.6313 112.999 23.7251 112.766 23.8306C112.534 23.9362 112.295 24.0256 112.049 24.0988C111.747 24.1893 111.465 24.2582 111.202 24.3056C110.94 24.353 110.578 24.3767 110.117 24.3767Z" fill="#D02D42"/>
<path fill-rule="evenodd" clip-rule="evenodd" d="M124.894 8.90341C125.725 8.01155 126.141 6.78795 126.141 5.23259C126.141 3.67722 125.725 2.45255 124.894 1.55854C124.062 0.664529 122.922 0.217529 121.475 0.217529C120.023 0.217529 118.883 0.666683 118.056 1.565C117.229 2.46332 116.815 3.68584 116.815 5.23259C116.815 6.76641 117.229 7.98462 118.056 8.88725C118.883 9.78988 120.023 10.2412 121.475 10.2412C122.922 10.2412 124.062 9.79526 124.894 8.90341ZM123.469 3.76232C123.587 4.16517 123.646 4.6531 123.646 5.22613C123.646 5.82932 123.59 6.31725 123.478 6.68993C123.366 7.06261 123.207 7.38898 123 7.66903C122.806 7.92754 122.576 8.11819 122.308 8.24098C122.041 8.36377 121.766 8.42517 121.481 8.42517C121.201 8.42517 120.93 8.36808 120.667 8.2539C120.404 8.13973 120.169 7.94908 119.963 7.68195C119.76 7.41914 119.601 7.09277 119.484 6.70285C119.368 6.31294 119.31 5.82285 119.31 5.23259C119.31 4.65956 119.371 4.16624 119.494 3.75263C119.617 3.33901 119.777 3.00727 119.975 2.75737C120.199 2.48594 120.432 2.29744 120.673 2.19189C120.915 2.08633 121.184 2.03355 121.481 2.03355C121.761 2.03355 122.032 2.09064 122.292 2.20481C122.553 2.31899 122.787 2.50748 122.994 2.7703C123.192 3.02881 123.35 3.35948 123.469 3.76232Z" fill="#D02D42"/>
<path d="M131.567 10.2283C130.124 10.2283 128.978 9.79205 128.129 8.91958C127.28 8.04711 126.856 6.82028 126.856 5.23907C126.856 3.71386 127.281 2.49781 128.132 1.59087C128.983 0.683931 130.13 0.230469 131.574 0.230469C131.957 0.230469 132.302 0.252011 132.608 0.295096C132.914 0.338181 133.207 0.398499 133.487 0.476052C133.706 0.540679 133.946 0.629002 134.204 0.741023C134.463 0.853043 134.672 0.949983 134.831 1.03184V3.3261H134.585C134.469 3.2227 134.323 3.09883 134.146 2.9545C133.969 2.81016 133.769 2.66906 133.545 2.53119C133.321 2.39332 133.074 2.27592 132.805 2.17897C132.536 2.08203 132.254 2.03356 131.961 2.03356C131.613 2.03356 131.293 2.0885 131.002 2.19836C130.711 2.30823 130.434 2.49888 130.171 2.77031C129.93 3.0159 129.733 3.34765 129.58 3.76557C129.427 4.18349 129.351 4.67681 129.351 5.24553C129.351 5.84441 129.43 6.34742 129.59 6.75457C129.749 7.16172 129.958 7.49024 130.217 7.74013C130.466 7.98141 130.745 8.1559 131.053 8.26361C131.362 8.37132 131.669 8.42518 131.974 8.42518C132.293 8.42518 132.597 8.3724 132.886 8.26684C133.174 8.16129 133.418 8.04388 133.616 7.91463C133.831 7.78106 134.021 7.64535 134.185 7.50748C134.348 7.3696 134.491 7.24681 134.611 7.1391H134.831V9.40105C134.654 9.48291 134.45 9.57662 134.217 9.68218C133.984 9.78773 133.745 9.87713 133.5 9.95038C133.198 10.0409 132.916 10.1098 132.653 10.1572C132.39 10.2046 132.028 10.2283 131.567 10.2283Z" fill="#D02D42"/>
<path fill-rule="evenodd" clip-rule="evenodd" d="M114.013 12.2511H116.229V8.19894H115.318V0.417847H108.532C108.532 1.97321 108.401 3.42408 108.138 4.77048C107.875 6.11688 107.518 7.25969 107.065 8.19894H106.419V12.2511H108.636V10.0085H114.013V12.2511ZM112.901 2.25326V8.19894H109.398C109.764 7.43634 110.068 6.54557 110.309 5.52662C110.551 4.50766 110.712 3.41655 110.794 2.25326H112.901Z" fill="#D02D42"/>
<path d="M138.395 10.0408V2.25326H135.551V0.417847H143.655V2.25326H140.812V10.0408H138.395Z" fill="#D02D42"/>
<path fill-rule="evenodd" clip-rule="evenodd" d="M146.065 0.417847L142.815 10.0408H145.238L145.839 8.07615H148.864L149.465 10.0408H151.953L148.702 0.417847H146.065ZM147.352 3.15803L148.334 6.33122H146.369L147.352 3.15803Z" fill="#D02D42"/>
<path fill-rule="evenodd" clip-rule="evenodd" d="M160.674 7.09382C160.674 7.57206 160.583 7.99214 160.402 8.35405C160.221 8.71596 159.978 9.0154 159.672 9.25237C159.31 9.53673 158.913 9.73922 158.48 9.85986C158.047 9.9805 157.496 10.0408 156.829 10.0408H152.977V0.417847H156.376C157.083 0.417847 157.618 0.444774 157.982 0.498631C158.346 0.552487 158.688 0.665583 159.007 0.837923C159.351 1.02319 159.609 1.27092 159.779 1.58113C159.949 1.89135 160.034 2.24894 160.034 2.65394C160.034 3.12357 159.917 3.54149 159.682 3.90771C159.447 4.27393 159.123 4.54321 158.709 4.71555V4.76725C159.304 4.89219 159.78 5.14747 160.137 5.53308C160.495 5.91869 160.674 6.43893 160.674 7.09382ZM157.578 3.13865C157.578 2.98354 157.538 2.82413 157.459 2.66041C157.379 2.49668 157.255 2.3782 157.087 2.30496C156.928 2.23602 156.739 2.19832 156.522 2.19186C156.304 2.1854 155.98 2.18217 155.549 2.18217H155.381V4.21792H155.685C156.098 4.21792 156.388 4.21361 156.554 4.20499C156.72 4.19638 156.891 4.15114 157.068 4.06928C157.262 3.9788 157.395 3.85385 157.468 3.69444C157.542 3.53502 157.578 3.34976 157.578 3.13865ZM158.005 6.35061C158.125 6.51864 158.186 6.7513 158.186 7.04858C158.186 7.28124 158.135 7.48912 158.034 7.67223C157.933 7.85534 157.772 7.99429 157.552 8.08908C157.303 8.19679 157.057 8.25495 156.816 8.26357C156.574 8.27219 156.139 8.2765 155.51 8.2765H155.381V5.86591H155.827C156.258 5.86591 156.601 5.86914 156.858 5.8756C157.114 5.88206 157.315 5.9133 157.462 5.96931C157.703 6.05548 157.884 6.18258 158.005 6.35061Z" fill="#D02D42"/>
<path d="M170.39 10.0408H167.973V2.25326H165.543C165.526 2.62809 165.51 2.97815 165.494 3.30344C165.479 3.62874 165.463 3.93787 165.446 4.23084C165.399 5.071 165.321 5.79589 165.213 6.40554C165.106 7.0152 164.983 7.5139 164.845 7.90166C164.694 8.31528 164.541 8.64056 164.386 8.87753C164.231 9.1145 164.085 9.30191 163.947 9.43978C163.74 9.64659 163.481 9.80923 163.171 9.92772C162.861 10.0462 162.555 10.1054 162.253 10.1054C162.051 10.1054 161.829 10.0968 161.588 10.0796C161.346 10.0624 161.194 10.0494 161.129 10.0408V7.91459H161.219C161.262 7.91889 161.304 7.9232 161.345 7.92751C161.386 7.93182 161.439 7.93397 161.504 7.93397C161.611 7.93397 161.749 7.91674 161.917 7.88227C162.085 7.8478 162.212 7.78964 162.299 7.70778C162.609 7.4148 162.821 6.96134 162.935 6.34738C163.049 5.73342 163.137 4.84696 163.197 3.68798C163.223 3.15803 163.239 2.68195 163.245 2.25972C163.252 1.83749 163.268 1.22353 163.294 0.417847H170.39V10.0408Z" fill="#D02D42"/>
<path d="M199.319 10.0408H196.914V3.66213L195.163 7.77887H193.515L191.764 3.66213V10.0408H189.489V0.417847H192.274L194.407 5.16794L196.533 0.417847H199.319V10.0408Z" fill="#D02D42"/>
<path fill-rule="evenodd" clip-rule="evenodd" d="M177.232 10.0408H179.636V0.417847H175.72C175.177 0.417847 174.695 0.466316 174.275 0.563258C173.855 0.660199 173.498 0.809916 173.206 1.01242C172.869 1.24507 172.593 1.54451 172.375 1.91073C172.157 2.27695 172.049 2.70564 172.049 3.19681C172.049 3.92495 172.209 4.51951 172.53 4.98052C172.851 5.44153 173.307 5.79913 173.897 6.05333L171.028 10.0408H173.897L176.321 6.51218H177.232V10.0408ZM177.232 2.18863V4.78017H176.469C176.107 4.78017 175.815 4.76509 175.593 4.73493C175.372 4.70477 175.179 4.62507 175.015 4.49581C174.869 4.38379 174.754 4.24054 174.673 4.06604C174.591 3.89155 174.55 3.69444 174.55 3.47471C174.55 3.26359 174.589 3.07079 174.666 2.89629C174.744 2.7218 174.856 2.5807 175.002 2.47299C175.192 2.33081 175.388 2.24787 175.59 2.22417C175.793 2.20048 176.081 2.18863 176.456 2.18863H177.232Z" fill="#D02D42"/>
<path d="M181.273 10.0408V0.417847H187.781V2.25326H183.678V3.94002H187.458V5.77543H183.678V8.20541H187.781V10.0408H181.273Z" fill="#D02D42"/>
<path fill-rule="evenodd" clip-rule="evenodd" d="M141.001 18.8834C141.143 18.4784 141.214 18.0518 141.214 17.6038C141.214 17.048 141.115 16.5686 140.917 16.1658C140.719 15.763 140.439 15.4409 140.077 15.1996C139.749 14.9799 139.384 14.8194 138.981 14.7182C138.578 14.6169 138.099 14.5663 137.543 14.5663H133.808V24.1893H136.225V21.0419H137.492C137.836 21.0419 138.148 21.0139 138.425 20.9579C138.703 20.9019 138.961 20.8243 139.198 20.7252C139.435 20.6261 139.651 20.5055 139.847 20.3633C140.043 20.2212 140.223 20.066 140.387 19.898C140.654 19.6266 140.859 19.2884 141.001 18.8834ZM138.539 16.9607C138.668 17.1568 138.732 17.3905 138.732 17.6619C138.732 17.9549 138.703 18.1876 138.645 18.3599C138.587 18.5322 138.476 18.6981 138.312 18.8575C138.235 18.9351 138.124 19.0051 137.98 19.0676C137.835 19.13 137.698 19.172 137.569 19.1936C137.418 19.2194 137.242 19.2345 137.039 19.2388C136.837 19.2431 136.621 19.2453 136.393 19.2453H136.225V16.3629H136.567C136.925 16.3629 137.208 16.3705 137.417 16.3855C137.626 16.4006 137.845 16.4577 138.073 16.5568C138.254 16.63 138.409 16.7647 138.539 16.9607Z" fill="#D02D42"/>
<path d="M150.603 24.1893H148.186V19.9239H144.897V24.1893H142.479V14.5663H144.897V18.0885H148.186V14.5663H150.603V24.1893Z" fill="#D02D42"/>
<path fill-rule="evenodd" clip-rule="evenodd" d="M171.131 13.2543C171.684 12.789 171.963 12.1686 171.967 11.3931H169.848C169.839 11.8584 169.74 12.1987 169.55 12.4142C169.361 12.6296 169.029 12.7373 168.555 12.7373C168.081 12.7373 167.749 12.6307 167.56 12.4174C167.37 12.2041 167.271 11.8627 167.263 11.3931H165.143C165.147 12.1557 165.432 12.7729 165.996 13.2446C166.56 13.7164 167.413 13.9523 168.555 13.9523C169.718 13.9523 170.577 13.7196 171.131 13.2543ZM170.319 24.1892H172.698V14.5663H170.184L166.765 20.2987V14.5663H164.387V24.1892H166.623L170.319 17.8493V24.1892Z" fill="#D02D42"/>
<path fill-rule="evenodd" clip-rule="evenodd" d="M159.651 21.113C159.651 21.5826 159.562 22.0146 159.383 22.4088C159.204 22.803 158.96 23.1251 158.649 23.375C158.279 23.6722 157.879 23.8823 157.451 24.0051C157.022 24.1279 156.5 24.1893 155.883 24.1893H152.064V14.5663H154.475V18.1789H155.922C156.487 18.1789 156.997 18.2188 157.454 18.2985C157.911 18.3782 158.326 18.5645 158.701 18.8575C159.033 19.116 159.274 19.4402 159.425 19.8302C159.576 20.2201 159.651 20.6477 159.651 21.113ZM157.157 21.1841C157.157 21.0247 157.139 20.8739 157.105 20.7317C157.07 20.5895 156.995 20.4581 156.879 20.3375C156.762 20.2168 156.603 20.1231 156.4 20.0564C156.198 19.9896 155.918 19.9562 155.56 19.9562H154.475V22.4055H155.56C156.051 22.4055 156.44 22.3011 156.727 22.0921C157.013 21.8831 157.157 21.5805 157.157 21.1841ZM160.369 24.1893H162.786V14.5663H160.369V24.1893Z" fill="#D02D42"/>
<path d="M184.111 16.4017H180.039V24.1893H177.622V14.5663H184.111V16.4017Z" fill="#D02D42"/>
<path fill-rule="evenodd" clip-rule="evenodd" d="M192.574 18.8834C192.716 18.4784 192.787 18.0518 192.787 17.6038C192.787 17.048 192.688 16.5686 192.49 16.1658C192.292 15.763 192.012 15.4409 191.65 15.1996C191.322 14.9799 190.957 14.8194 190.554 14.7182C190.152 14.6169 189.672 14.5663 189.117 14.5663H185.381V24.1893H187.798V21.0419H189.065C189.41 21.0419 189.721 21.0139 189.999 20.9579C190.277 20.9019 190.534 20.8243 190.771 20.7252C191.008 20.6261 191.224 20.5055 191.421 20.3633C191.617 20.2212 191.796 20.066 191.96 19.898C192.227 19.6266 192.432 19.2884 192.574 18.8834ZM190.112 16.9607C190.241 17.1568 190.306 17.3905 190.306 17.6619C190.306 17.9549 190.277 18.1876 190.218 18.3599C190.16 18.5322 190.049 18.6981 189.886 18.8575C189.808 18.9351 189.697 19.0051 189.553 19.0676C189.408 19.13 189.272 19.172 189.142 19.1936C188.992 19.2194 188.815 19.2345 188.612 19.2388C188.41 19.2431 188.195 19.2453 187.966 19.2453H187.798V16.3629H188.141C188.498 16.3629 188.782 16.3705 188.991 16.3855C189.199 16.4006 189.418 16.4577 189.646 16.5568C189.827 16.63 189.983 16.7647 190.112 16.9607Z" fill="#D02D42"/>
<path d="M202.002 14.5663L198.79 22.2634C198.6 22.7114 198.388 23.0647 198.153 23.3233C197.918 23.5818 197.672 23.7778 197.413 23.9114C197.155 24.0449 196.896 24.1343 196.638 24.1796C196.379 24.2248 196.108 24.2474 195.823 24.2474C195.526 24.2474 195.18 24.241 194.786 24.228C194.392 24.2151 194.128 24.2022 193.994 24.1893V22.147H194.143C194.182 22.1557 194.242 22.1664 194.324 22.1794C194.406 22.1923 194.509 22.2052 194.634 22.2181C194.738 22.2267 194.85 22.2354 194.97 22.244C195.091 22.2526 195.201 22.2569 195.3 22.2569C195.589 22.2569 195.861 22.2214 196.117 22.1503C196.374 22.0792 196.545 21.9575 196.631 21.7851L193.07 14.5663H195.681L197.743 19.0773L199.488 14.5663H202.002Z" fill="#D02D42"/>
<path d="M209.404 19.6331C209.62 19.8184 209.792 20.0478 209.921 20.3214C210.051 20.595 210.115 20.9278 210.115 21.3199C210.115 22.2806 209.746 23.0303 209.007 23.5689C208.268 24.1074 207.207 24.3767 205.824 24.3767C205.195 24.3767 204.595 24.3207 204.024 24.2087C203.453 24.0967 202.931 23.9437 202.457 23.7498V21.5977H202.677C203 21.8218 203.425 22.0404 203.953 22.2537C204.481 22.467 204.997 22.5736 205.501 22.5736C206.152 22.5736 206.669 22.4573 207.052 22.2246C207.435 21.992 207.627 21.6344 207.627 21.1518C207.627 20.7339 207.487 20.4248 207.207 20.2244C206.927 20.0241 206.423 19.9239 205.695 19.9239H204.312V18.2048H205.63C206.233 18.2048 206.675 18.1133 206.955 17.9302C207.235 17.7471 207.375 17.4724 207.375 17.1062C207.375 16.783 207.221 16.5482 206.913 16.4017C206.605 16.2552 206.195 16.182 205.682 16.182C205.393 16.182 205.119 16.2122 204.858 16.2725C204.597 16.3328 204.342 16.4082 204.092 16.4987C203.859 16.5848 203.645 16.6796 203.449 16.783C203.253 16.8864 203.103 16.964 203 17.0157H202.774V15.0123C203.054 14.8959 203.512 14.7613 204.147 14.6083C204.783 14.4554 205.449 14.3789 206.147 14.3789C207.388 14.3789 208.317 14.5846 208.933 14.9961C209.549 15.4076 209.857 15.9795 209.857 16.7119C209.857 17.2591 209.688 17.7309 209.35 18.1273C209.011 18.5237 208.575 18.7886 208.041 18.9222V19.0191C208.239 19.0536 208.47 19.1247 208.732 19.2324C208.995 19.3401 209.219 19.4737 209.404 19.6331Z" fill="#D02D42"/>
<path d="M89.9109 0.456346C91.2939 0.254492 92.7392 0.153564 94.2467 0.153564C95.7542 0.153564 97.1995 0.254492 98.5825 0.456346V7.75876H89.9109V0.456346Z" fill="#D02D42"/>
<path d="M89.9109 24.3428C91.2939 24.5447 92.7392 24.6456 94.2467 24.6456C95.7542 24.6456 97.1995 24.5447 98.5825 24.3428V17.0404H89.9109V24.3428Z" fill="#D02D42"/>
<path d="M58.8284 0.718506V24.1477H67.0492V15.1664H70.1593L76.989 24.1477H87.1781L76.989 11.7158L86.7149 0.718506H76.989L70.1593 9.35149H67.0492V0.718506H58.8284Z" fill="#242265"/>
<path d="M29.7217 0.615037L30.7991 6.81834C34.467 6.57113 37.5103 6.44752 39.9289 6.44752C42.3475 6.44752 44.747 6.57113 47.1276 6.81834L47.5424 9.21029H36.7044V15.377H47.5424L47.1276 18.0608C45.0529 18.2353 42.5505 18.3226 39.6205 18.3226C36.6904 18.3226 33.75 18.2353 30.7991 18.0608L29.7217 24.1024C34.0878 24.3402 38.1702 24.459 41.969 24.459C45.7678 24.459 49.5418 24.3402 53.2911 24.1024C54.6811 20.3592 55.3761 16.5213 55.3761 12.5887C55.3761 8.65613 54.6811 4.6649 53.2911 0.615037C50.3968 0.398127 46.8243 0.289673 42.5737 0.289673C38.3231 0.289673 34.0391 0.398127 29.7217 0.615037Z" fill="#242265"/>
<path d="M0.27417 0.705688V24.0627H8.67569V7.17255H18.329V24.0627H26.8105V0.705688H0.27417Z" fill="#242265"/>
</svg>
