<svg width="46" height="46" viewBox="0 0 46 46" fill="none" xmlns="http://www.w3.org/2000/svg">
<path fill-rule="evenodd" clip-rule="evenodd" d="M41 23.1184C41 13.5095 32.9411 5.71997 23 5.71997C22.0477 5.71997 21.1127 5.79145 20.2018 5.92771C20.4097 6.16324 20.6122 6.40312 20.8092 6.64734C21.0286 6.91931 21.2274 7.17952 21.4032 7.42677C20.9991 8.77809 21.1214 10.6171 21.5927 11.9252L22.0162 13.079L22.3876 14.1243L22.6082 14.799C22.8594 15.606 22.9964 16.211 22.9964 16.5341L22.9966 16.5894C22.9987 17.0986 23.0048 18.5558 21.8306 19.4399C21.3326 19.8147 20.5667 20.4402 19.8975 20.9867L19.8974 20.9867C19.2357 21.5271 18.6685 21.9902 18.5485 22.0576L18.415 22.1378C16.22 23.5514 17.8104 27.4097 20.8867 27.4097C21.2262 27.4097 21.5319 27.3997 21.9166 27.3773L23.0216 27.3065C23.7813 27.2654 23.7692 27.2854 23.6899 27.4155C23.64 27.4975 23.5633 27.6232 23.6366 27.8051L23.674 27.9025C23.7851 28.2042 23.8852 28.5986 24.0284 29.263L24.1725 29.9345L24.3093 30.5331C24.7908 32.52 25.3919 33.6614 26.6594 34.2427C27.8658 34.7961 28.8391 34.3023 29.9111 33.1306L30.2602 32.7341L30.5939 32.3405C31.4646 31.3125 31.9255 30.9414 32.304 30.9414C33.3472 30.9414 34.6928 31.1841 36.3297 31.6755C33.4627 35.8397 28.5629 38.5837 23 38.5837C22.4019 38.5837 21.8114 38.552 21.2303 38.4902L21.2163 38.4053L21.1185 37.9418C20.9473 37.0582 21.1982 36.6381 22.9426 35.7658C24.5901 34.942 24.552 33.3558 23.386 31.9608C22.5199 30.9246 21.0793 30.0111 19.8278 29.7229C19.0555 29.5451 18.4694 29.5511 17.8325 29.7153C17.7791 29.729 17.6946 29.7537 17.5983 29.7828L17.033 29.9591L16.7641 30.038C15.894 30.272 14.8957 30.3611 13.2533 30.2691C9.95981 30.0847 7.08913 26.6441 7.08913 24.6177L7.07422 24.6177C7.03499 24.2235 7.01107 23.825 7.00304 23.4228L7.001 23.2277L5.20898 20.4588C5.07138 21.3259 5 22.2141 5 23.1184C5 32.7273 13.0589 40.5169 23 40.5169C32.9411 40.5169 41 32.7273 41 23.1184ZM9.2337 31.0047L9.11402 30.8077C10.2997 31.5878 11.6748 32.1171 13.1377 32.199C15.1197 32.31 16.3757 32.177 17.5222 31.8377L18.3478 31.5832C18.6627 31.502 18.9125 31.4994 19.3643 31.6035C20.1726 31.7896 21.2345 32.4629 21.8303 33.1757C22.3043 33.7428 22.3083 33.9065 22.0236 34.0488L21.7761 34.1757C19.5161 35.3633 18.8795 36.5478 19.1232 38.1266C14.9269 37.1172 11.3855 34.5066 9.2337 31.0047ZM23.3899 7.65763L23.3743 7.68794C23.1222 8.25673 23.104 10.0636 23.4322 11.1408L23.5304 11.4225L24.0891 12.9514L24.364 13.7477C24.7728 14.9767 24.9964 15.8829 24.9964 16.5341L24.9902 16.8309C24.942 17.9846 24.5892 19.8133 23.0596 20.965C22.7148 21.2245 22.1467 21.6864 21.5635 22.1606L21.5634 22.1606C20.7054 22.8582 19.8144 23.5826 19.5525 23.7295C19.0687 24.0009 19.6544 25.4766 20.8867 25.4766C21.1241 25.4766 21.3465 25.4708 21.6068 25.4579L22.7279 25.3875C24.6898 25.2753 24.8556 25.49 25.3335 26.6852L25.5004 27.1039C25.6443 27.4613 25.753 27.8379 25.8835 28.4051L26.1973 29.8398C26.5607 31.43 26.9565 32.2392 27.5168 32.4962C27.6274 32.5469 27.8101 32.4695 28.2 32.0747L28.5221 31.7299L29.0464 31.1159C30.3168 29.616 31.0717 29.0083 32.304 29.0083C33.6693 29.0083 35.3465 29.3283 37.3511 29.9612C38.4071 27.8992 39 25.5757 39 23.1184C39 21.912 38.8571 20.7379 38.5867 19.611C38.0335 19.1158 37.2122 18.7766 36.096 18.6101C35.2872 18.4895 34.7974 18.5252 34.1131 18.7121L33.4614 18.9037C32.2827 19.2373 31.3136 19.1788 29.8402 18.5358C26.6748 17.1543 26.4382 13.1409 28.2279 11.0389C28.8161 10.348 29.6215 9.98331 30.7007 9.77635L31.0047 9.72473C28.8804 8.53605 26.4472 7.80596 23.8499 7.67458L23.3899 7.65763ZM33.2358 11.3716L33.3693 11.3401C35.2226 12.8659 36.7112 14.7932 37.6916 16.9826C37.2899 16.8621 36.8595 16.7679 36.4009 16.6995C35.1653 16.5153 34.3667 16.6085 33.2834 16.934L32.8993 17.0485C32.1743 17.2537 31.6965 17.2248 30.6632 16.7739C28.8776 15.9946 28.7301 13.4912 29.7722 12.2673C30.0313 11.9629 30.5113 11.7646 31.2887 11.6373L31.5385 11.5991L32.4878 11.4879C32.8071 11.4499 33.0336 11.4161 33.2358 11.3716Z" fill="#626873"/>
<path fill-rule="evenodd" clip-rule="evenodd" d="M12.6638 5.71997C16.8905 5.71997 20.3276 9.04218 20.3276 13.1276C20.3276 15.3059 19.1351 17.9125 17.1456 20.7908C16.4577 21.786 15.7167 22.7485 14.9677 23.6475L14.6313 24.0466C14.3118 24.4209 14.0455 24.7191 13.8543 24.925C13.2189 25.6091 12.109 25.6095 11.4733 24.925L11.1329 24.549C10.9155 24.3038 10.6536 24.0002 10.3599 23.6475C9.61086 22.7485 8.86985 21.786 8.18196 20.7908C6.19246 17.9125 5 15.3059 5 13.1276C5 9.04217 8.43707 5.71997 12.6638 5.71997ZM12.6638 7.65313C9.54164 7.65313 7 10.1098 7 13.1276C7 14.8177 8.05971 17.1341 9.84495 19.7168C10.4973 20.6606 11.2036 21.578 11.9176 22.4351L12.3828 22.9837L12.663 23.305L13.0912 22.8132L13.4099 22.4351C14.124 21.578 14.8303 20.6606 15.4826 19.7168C17.2679 17.1341 18.3276 14.8177 18.3276 13.1276C18.3276 10.1098 15.7859 7.65313 12.6638 7.65313ZM12.6638 8.92038C15.0647 8.92038 17.0164 10.8069 17.0164 13.1276C17.0164 15.4484 15.0647 17.3349 12.6638 17.3349C10.2628 17.3349 8.3111 15.4484 8.3111 13.1276C8.3111 10.8069 10.2628 8.92038 12.6638 8.92038ZM12.6638 10.8535C11.3674 10.8535 10.3111 11.8745 10.3111 13.1276C10.3111 14.3807 11.3674 15.4017 12.6638 15.4017C13.9602 15.4017 15.0164 14.3807 15.0164 13.1276C15.0164 11.8745 13.9602 10.8535 12.6638 10.8535Z" fill="#BE0318"/>
</svg>
