<svg width="148" height="148" viewBox="0 0 148 148" fill="none" xmlns="http://www.w3.org/2000/svg">
<path fill-rule="evenodd" clip-rule="evenodd" d="M136.997 44.5772C136.997 44.19 136.794 43.8277 136.454 43.6313L103.144 24.3995C102.872 24.2431 102.547 24.2103 102.249 24.3102L32.8715 47.6474C32.4646 47.7842 32.1757 48.147 32.1329 48.5741C32.1297 48.6061 32.1298 48.6379 32.1299 48.6697L32.1299 48.6825H32.1274V52.723L16.2337 61.9012C15.9486 62.0658 15.7575 62.349 15.7042 62.6675L15.7026 62.6673L12.015 84.7738L12.0167 84.774C12.0068 84.833 12 84.8925 12 84.9535V103.427C12 103.817 12.2081 104.178 12.5461 104.373L45.8532 123.602C46.0235 123.7 46.2118 123.748 46.3985 123.748C46.589 123.748 46.7762 123.694 46.9437 123.597L46.9453 123.6L57.784 117.343C57.895 119.514 58.7768 121.318 60.4 122.256C61.1438 122.685 61.9668 122.889 62.8268 122.889C65.639 122.889 68.844 120.706 70.9372 117.081C72.6027 114.196 73.123 111.16 72.559 108.812L100.225 92.8408C100.388 94.9017 101.264 96.6055 102.826 97.507C103.556 97.9287 104.373 98.139 105.242 98.139C106.271 98.139 107.371 97.844 108.484 97.2565C110.372 96.26 112.105 94.511 113.363 92.3327C114.595 90.1977 115.241 87.875 115.19 85.7752C115.556 87.2663 116.359 88.4772 117.591 89.1885C118.322 89.6103 119.139 89.8205 120.008 89.8205C121.036 89.8205 122.137 89.5255 123.25 88.9378C125.139 87.9413 126.871 86.1925 128.129 84.014C129.387 81.8353 130.035 79.4605 129.954 77.3273C129.934 76.786 129.866 76.2752 129.756 75.7967L131.771 74.633C132.11 74.438 132.318 74.0773 132.318 73.687V63.0552L136.454 60.6675C136.792 60.4722 137 60.1117 137 59.7217V44.5774H136.997V44.5772ZM48.5467 84.7935L17.241 66.7203L17.5978 64.5805L48.8898 82.646L48.5467 84.7935ZM45.7145 102.526L48.178 87.103L16.8573 69.021L14.2942 84.386L45.7145 102.526ZM45.3075 104.813V109.132L14.1844 91.1642V86.8452L45.3075 104.813ZM17.2052 95.4305L14.1844 93.6868V97.0273L17.2052 98.771V95.4305ZM19.3896 96.6917L40.005 108.593V117.703L19.3896 105.801V96.6917ZM45.3078 111.654L42.1893 109.854V113.196L45.3078 114.996V111.654ZM51.0833 82.7617L65.4345 74.4772V91.9422L48.0103 102.002L51.0833 82.7617ZM65.4345 68.542L34.3118 50.5745V52.7305L65.4345 70.701V68.542ZM66.6457 66.7187L63.0472 64.6413L102.598 41.8046L116.632 49.9075L66.6457 66.7187ZM103.69 39.9132L119.392 48.9793L133.266 44.3131L103.69 27.2373V39.9132ZM101.505 26.8652V39.9132L60.8627 63.3802L35.8611 48.9465L101.505 26.8652ZM64.336 72.589L33.2133 54.6185L18.9642 62.847L50.0868 80.8145L64.336 72.589ZM14.1844 99.5498L17.2052 101.294V104.541L14.1844 102.797V99.5498ZM42.1893 115.718V118.964L45.3078 120.765V117.518L42.1893 115.718ZM58.0033 114.695L47.492 120.763V104.824L65.4345 94.4648V105.181C63.2917 105.992 61.1523 107.878 59.613 110.543C58.8165 111.923 58.2832 113.337 58.0033 114.695ZM61.4925 120.364C63.536 121.544 66.9953 119.541 69.0457 115.989C71.0965 112.437 71.102 108.44 69.058 107.26C68.6595 107.03 68.2067 106.921 67.7213 106.921C65.7183 106.921 63.1553 108.776 61.5047 111.635C59.4543 115.187 59.4485 119.184 61.4925 120.364ZM70.1503 105.368C69.3768 104.922 68.5168 104.721 67.6188 104.738V100.407L74.3463 96.5228V105.259L71.684 106.796C71.2815 106.213 70.7708 105.727 70.1503 105.368ZM93.0622 94.4543V85.7178L76.5307 95.2617V103.998L93.0622 94.4543ZM111.471 91.2408C110.417 93.0675 108.994 94.5182 107.465 95.325C106.101 96.0452 104.841 96.1482 103.918 95.6155C101.874 94.4355 101.88 90.4382 103.93 86.8867C104.985 85.06 106.408 83.6092 107.937 82.8025C109.301 82.082 110.561 81.9787 111.484 82.5117C112.407 83.0445 112.947 84.187 113.005 85.7287C113.071 87.4565 112.526 89.414 111.471 91.2408ZM122.231 87.0065C123.759 86.1997 125.182 84.749 126.237 82.9222C127.292 81.0952 127.837 79.1377 127.771 77.4103C127.713 75.8685 127.172 74.726 126.249 74.1932C125.86 73.969 125.411 73.8573 124.92 73.8573C124.245 73.8573 123.491 74.0672 122.702 74.484C121.174 75.2907 119.751 76.7415 118.696 78.5682C116.646 82.1198 116.64 86.117 118.684 87.297C119.607 87.8298 120.866 87.7267 122.231 87.0065ZM130.133 73.0567L128.901 73.7682C128.49 73.1602 127.968 72.6635 127.341 72.3018C125.744 71.3795 123.735 71.4687 121.683 72.552C119.794 73.5487 118.062 75.2972 116.804 77.476C115.996 78.876 115.459 80.311 115.183 81.6865L114.232 82.2352C113.809 81.559 113.253 81.0112 112.576 80.6202C110.979 79.6982 108.969 79.7872 106.917 80.8705C105.029 81.8672 103.296 83.6157 102.038 85.7945C101.185 87.2722 100.632 88.79 100.371 90.2345L95.247 93.1927V84.4562L130.133 64.316V73.0567ZM67.6188 68.6963V97.884L134.815 59.091V46.097L67.6188 68.6963Z" fill="#626873"/>
<mask id="mask0" mask-type="alpha" maskUnits="userSpaceOnUse" x="12" y="24" width="125" height="100">
<path fill-rule="evenodd" clip-rule="evenodd" d="M136.997 44.5772C136.997 44.19 136.794 43.8277 136.454 43.6313L103.144 24.3995C102.872 24.2431 102.547 24.2103 102.249 24.3102L32.8715 47.6474C32.4646 47.7842 32.1757 48.147 32.1329 48.5741C32.1297 48.6061 32.1298 48.6379 32.1299 48.6697L32.1299 48.6825H32.1274V52.723L16.2337 61.9012C15.9486 62.0658 15.7575 62.349 15.7042 62.6675L15.7026 62.6673L12.015 84.7738L12.0167 84.774C12.0068 84.833 12 84.8925 12 84.9535V103.427C12 103.817 12.2081 104.178 12.5461 104.373L45.8532 123.602C46.0235 123.7 46.2118 123.748 46.3985 123.748C46.589 123.748 46.7762 123.694 46.9437 123.597L46.9453 123.6L57.784 117.343C57.895 119.514 58.7768 121.318 60.4 122.256C61.1438 122.685 61.9668 122.889 62.8268 122.889C65.639 122.889 68.844 120.706 70.9372 117.081C72.6027 114.196 73.123 111.16 72.559 108.812L100.225 92.8408C100.388 94.9017 101.264 96.6055 102.826 97.507C103.556 97.9287 104.373 98.139 105.242 98.139C106.271 98.139 107.371 97.844 108.484 97.2565C110.372 96.26 112.105 94.511 113.363 92.3327C114.595 90.1977 115.241 87.875 115.19 85.7752C115.556 87.2663 116.359 88.4772 117.591 89.1885C118.322 89.6103 119.139 89.8205 120.008 89.8205C121.036 89.8205 122.137 89.5255 123.25 88.9378C125.139 87.9413 126.871 86.1925 128.129 84.014C129.387 81.8353 130.035 79.4605 129.954 77.3273C129.934 76.786 129.866 76.2752 129.756 75.7967L131.771 74.633C132.11 74.438 132.318 74.0773 132.318 73.687V63.0552L136.454 60.6675C136.792 60.4722 137 60.1117 137 59.7217V44.5774H136.997V44.5772ZM48.5467 84.7935L17.241 66.7203L17.5978 64.5805L48.8898 82.646L48.5467 84.7935ZM45.7145 102.526L48.178 87.103L16.8573 69.021L14.2942 84.386L45.7145 102.526ZM45.3075 104.813V109.132L14.1844 91.1642V86.8452L45.3075 104.813ZM17.2052 95.4305L14.1844 93.6868V97.0273L17.2052 98.771V95.4305ZM19.3896 96.6917L40.005 108.593V117.703L19.3896 105.801V96.6917ZM45.3078 111.654L42.1893 109.854V113.196L45.3078 114.996V111.654ZM51.0833 82.7617L65.4345 74.4772V91.9422L48.0103 102.002L51.0833 82.7617ZM65.4345 68.542L34.3118 50.5745V52.7305L65.4345 70.701V68.542ZM66.6457 66.7187L63.0472 64.6413L102.598 41.8046L116.632 49.9075L66.6457 66.7187ZM103.69 39.9132L119.392 48.9793L133.266 44.3131L103.69 27.2373V39.9132ZM101.505 26.8652V39.9132L60.8627 63.3802L35.8611 48.9465L101.505 26.8652ZM64.336 72.589L33.2133 54.6185L18.9642 62.847L50.0868 80.8145L64.336 72.589ZM14.1844 99.5498L17.2052 101.294V104.541L14.1844 102.797V99.5498ZM42.1893 115.718V118.964L45.3078 120.765V117.518L42.1893 115.718ZM58.0033 114.695L47.492 120.763V104.824L65.4345 94.4648V105.181C63.2917 105.992 61.1523 107.878 59.613 110.543C58.8165 111.923 58.2832 113.337 58.0033 114.695ZM61.4925 120.364C63.536 121.544 66.9953 119.541 69.0457 115.989C71.0965 112.437 71.102 108.44 69.058 107.26C68.6595 107.03 68.2067 106.921 67.7213 106.921C65.7183 106.921 63.1553 108.776 61.5047 111.635C59.4543 115.187 59.4485 119.184 61.4925 120.364ZM70.1503 105.368C69.3768 104.922 68.5168 104.721 67.6188 104.738V100.407L74.3463 96.5228V105.259L71.684 106.796C71.2815 106.213 70.7708 105.727 70.1503 105.368ZM93.0622 94.4543V85.7178L76.5307 95.2617V103.998L93.0622 94.4543ZM111.471 91.2408C110.417 93.0675 108.994 94.5182 107.465 95.325C106.101 96.0452 104.841 96.1482 103.918 95.6155C101.874 94.4355 101.88 90.4382 103.93 86.8867C104.985 85.06 106.408 83.6092 107.937 82.8025C109.301 82.082 110.561 81.9787 111.484 82.5117C112.407 83.0445 112.947 84.187 113.005 85.7287C113.071 87.4565 112.526 89.414 111.471 91.2408ZM122.231 87.0065C123.759 86.1997 125.182 84.749 126.237 82.9222C127.292 81.0952 127.837 79.1377 127.771 77.4103C127.713 75.8685 127.172 74.726 126.249 74.1932C125.86 73.969 125.411 73.8573 124.92 73.8573C124.245 73.8573 123.491 74.0672 122.702 74.484C121.174 75.2907 119.751 76.7415 118.696 78.5682C116.646 82.1198 116.64 86.117 118.684 87.297C119.607 87.8298 120.866 87.7267 122.231 87.0065ZM130.133 73.0567L128.901 73.7682C128.49 73.1602 127.968 72.6635 127.341 72.3018C125.744 71.3795 123.735 71.4687 121.683 72.552C119.794 73.5487 118.062 75.2972 116.804 77.476C115.996 78.876 115.459 80.311 115.183 81.6865L114.232 82.2352C113.809 81.559 113.253 81.0112 112.576 80.6202C110.979 79.6982 108.969 79.7872 106.917 80.8705C105.029 81.8672 103.296 83.6157 102.038 85.7945C101.185 87.2722 100.632 88.79 100.371 90.2345L95.247 93.1927V84.4562L130.133 64.316V73.0567ZM67.6188 68.6963V97.884L134.815 59.091V46.097L67.6188 68.6963Z" fill="white"/>
</mask>
<g mask="url(#mask0)">
</g>
</svg>
