<svg width="20" height="13" viewBox="0 0 20 13" fill="none" xmlns="http://www.w3.org/2000/svg">
<path fill-rule="evenodd" clip-rule="evenodd" d="M11.9224 9.53154L8.11648 0.607762C7.93688 0.186633 7.49422 -0.058738 7.0419 0.0121103C6.49627 0.0975751 6.12323 0.60918 6.20869 1.15481L7.70998 10.7394C7.72409 10.8295 7.74377 10.9187 7.76891 11.0064C8.10504 12.1786 9.32779 12.8563 10.5 12.5202C10.5877 12.4951 10.6737 12.4645 10.7576 12.4288C11.8793 11.9504 12.4008 10.6532 11.9224 9.53154ZM19.9962 11.2403L20 11.5202H18C18 7.65052 15.2525 4.42254 11.6018 3.68061L10.6912 1.54373C15.7996 1.89246 19.8543 6.07768 19.9962 11.2403ZM4.49955 3.16754L4.84904 5.39891C3.16601 6.8166 2.07587 8.91572 2.00381 11.271L2 11.5202H0C0 8.02939 1.78869 4.95632 4.49955 3.16754Z" fill="#6E747A"/>
</svg>
