<svg width="46" height="46" viewBox="0 0 46 46" fill="none" xmlns="http://www.w3.org/2000/svg">
<path fill-rule="evenodd" clip-rule="evenodd" d="M16 24C16 22.3431 17.3431 21 19 21C20.6569 21 22 22.3431 22 24C22 25.6569 20.6569 27 19 27C17.3431 27 16 25.6569 16 24ZM20 24C20 23.4477 19.5523 23 19 23C18.4477 23 18 23.4477 18 24C18 24.5523 18.4477 25 19 25C19.5523 25 20 24.5523 20 24ZM25 33C25 31.3431 26.3431 30 28 30C29.6569 30 31 31.3431 31 33C31 34.6569 29.6569 36 28 36C26.3431 36 25 34.6569 25 33ZM29 33C29 32.4477 28.5523 32 28 32C27.4477 32 27 32.4477 27 33C27 33.5523 27.4477 34 28 34C28.5523 34 29 33.5523 29 33ZM28.3848 24.5355L26.9706 23.1213L17.0711 33.0208L18.4853 34.435L28.3848 24.5355Z" fill="#BE0318"/>
<path fill-rule="evenodd" clip-rule="evenodd" d="M28 4.99992L27.9935 4.88306C27.9157 4.19651 27.1605 3.781 26.5294 4.11756L23.223 5.87992L19.4594 4.09631L19.349 4.05154C18.7199 3.83794 18.0418 4.29738 18.0312 4.98439L18.015 5.99892L17 5.99992L16.8849 6.00629C16.208 6.08194 15.7906 6.81722 16.1056 7.44713L18.646 12.528C18.2488 12.8935 18 13.4176 18 13.9999L18.0001 15.9191C12.7373 17.932 9 23.0295 9 28.9999V39.9999C9 40.5522 9.44772 40.9999 10 40.9999H36C36.5523 40.9999 37 40.5522 37 39.9999V28.9999C37 23.0299 33.2632 17.9326 28.0009 15.9195L28 15.0395L28.3432 15.1985L28.569 15.2947C29.7838 15.7693 31.1596 15.6303 32.2589 14.9101L32.4193 14.8136C33.0186 14.4844 33.733 14.4244 34.3829 14.6551L35.3998 15.016L36.0688 13.1312L35.0519 12.7703L34.8215 12.6955C33.7963 12.3939 32.7006 12.4765 31.7398 12.9213C31.8937 12.7067 32.0286 12.4761 32.1418 12.2317L32.2236 12.0701C32.5725 11.4376 33.1739 10.9786 33.8825 10.812L34.7176 10.6155L34.2596 8.66863L33.4245 8.8651L33.1858 8.9281C31.926 9.29726 30.8815 10.1931 30.3267 11.3917L30.2485 11.5449C29.9138 12.1428 29.3208 12.5574 28.6372 12.6623L27.6138 12.8183L27.5907 12.7874L29.9181 7.39618L29.9586 7.28559C30.1486 6.65651 29.6791 5.99992 29 5.99992L28 5.99892V4.99992ZM11.0038 28.6949C11.1656 22.2085 16.4745 16.9999 23 16.9999L23.305 17.0037C29.7915 17.1655 35 22.4745 35 28.9999V38.9999H11V28.9999L11.0038 28.6949ZM26 13.9999H20L20.0003 15.322C20.9667 15.1111 21.9704 14.9999 23 14.9999C24.03 14.9999 25.034 15.1111 26.0007 15.3222L26 13.9999ZM19.9999 7.01544L20.006 6.56892L22.8216 7.90353L22.9469 7.95287C23.2019 8.03403 23.4811 8.00999 23.7206 7.88227L26 6.66592V6.99992L26.0067 7.11654C26.0645 7.61388 26.4872 7.99992 27 7.99992L27.479 7.99892L25.752 11.9995H20.617L18.617 7.99892L19 7.99992L19.1154 7.99333C19.6076 7.93675 19.992 7.5226 19.9999 7.01544Z" fill="#626873"/>
</svg>
