<svg width="68" height="68" viewBox="0 0 68 68" fill="none" xmlns="http://www.w3.org/2000/svg">
<path fill-rule="evenodd" clip-rule="evenodd" d="M18 9C18 8.44772 18.4477 8 19 8C19.5523 8 20 8.44772 20 9V11H48V9C48 8.44772 48.4477 8 49 8C49.5523 8 50 8.44772 50 9V11H54C57.7854 11 60.8691 14.0048 60.9959 17.7593L61 18V47H59V25H9V53C9 55.6888 11.1223 57.8818 13.7831 57.9954L14 58H50V60H14C10.2145 60 7.1309 56.9952 7.00406 53.2407L7 53V18C7 14.2145 10.0048 11.1309 13.7594 11.0041L14 11H18V9ZM48 13V16C48 16.5523 48.4477 17 49 17C49.5523 17 50 16.5523 50 16V13H54L54.2169 13.0046C56.8777 13.1182 59 15.3112 59 18V23H9V18L9.00462 17.7831C9.11818 15.1223 11.3112 13 14 13H18V16C18 16.5523 18.4477 17 19 17C19.5523 17 20 16.5523 20 16V13H48ZM36 29C37.1046 29 38 29.8954 38 31V38C38 39.1046 37.1046 40 36 40H29C27.8954 40 27 39.1046 27 38V31C27 29.8954 27.8954 29 29 29H36ZM36 31H29V38H36V31ZM24 45C24 43.8954 23.1046 43 22 43H15C13.8954 43 13 43.8954 13 45V52C13 53.1046 13.8954 54 15 54H22C23.1046 54 24 53.1046 24 52V45ZM15 45H22V52H15V45Z" fill="#ADB8C7"/>
<rect x="13" y="29" width="11" height="11" rx="2" fill="#009DFF"/>
<path fill-rule="evenodd" clip-rule="evenodd" d="M63 49C63 56.1797 57.1797 62 50 62C42.8203 62 37 56.1797 37 49C37 41.8203 42.8203 36 50 36C57.1797 36 63 41.8203 63 49ZM56.7071 45.7071L55.2929 44.2929L49 50.585L45.7071 47.2929L44.2929 48.7071L49 53.4142L56.7071 45.7071Z" fill="#009DFF"/>
</svg>
