<svg width="68" height="68" viewBox="0 0 68 68" fill="none" xmlns="http://www.w3.org/2000/svg">
<path fill-rule="evenodd" clip-rule="evenodd" d="M21 17C21.5522 17 22 17.4477 22 18C22 18.5128 21.6139 18.9355 21.1166 18.9933L21 19H11.863L7.15695 51H17.2727L21.6373 19H23.6373L19.2348 51.2779L34 54.968L48.7964 51.27L45 19H47L50.7647 51H60.842L56.136 19H47C46.4871 19 46.0644 18.614 46.0067 18.1166L46 18C46 17.4872 46.386 17.0645 46.8833 17.0067L47 17H57C57.4579 17 57.8519 17.3099 57.9666 17.7436L57.9893 17.8545L62.9893 51.8545C63.0725 52.4205 62.6665 52.932 62.1126 52.9938L62 53H51H50.122L34.2425 56.9701C34.1231 57 33.9995 57.0075 33.878 56.9925L33.7574 56.9701L17.877 53H17H5.99995C5.42788 53 4.98086 52.5238 5.00037 51.9669L5.01059 51.8545L10.0106 17.8545C10.0772 17.4015 10.4411 17.0567 10.8869 17.0063L11 17H21Z" fill="#ADB8C7"/>
<path fill-rule="evenodd" clip-rule="evenodd" d="M33.9982 8L34.0655 8.00032C42.8584 8.03429 50 15.0275 50 23.618C50 28.3393 47.5278 32.0217 44.7732 35.6888C44.2967 36.323 38.4652 44.0517 35.5769 47.8796C34.7756 48.9415 33.1803 48.9396 32.3814 47.876L23.2268 35.6884C20.4722 32.0214 18 28.3389 18 23.6177C18 15.006 25.1768 8 33.9982 8ZM26 23.9999C26 19.5888 29.5886 16 34 16C38.4111 16 42 19.5888 42 23.9999C42 28.4112 38.4111 32 34 32C29.5886 32 26 28.4112 26 23.9999Z" fill="#009DFF"/>
</svg>
