<svg width="46" height="46" viewBox="0 0 46 46" fill="none" xmlns="http://www.w3.org/2000/svg">
<path fill-rule="evenodd" clip-rule="evenodd" d="M4 26H10C10.5523 26 11 26.4477 11 27V27.7989C12.3982 27.1278 13.9429 26.8531 15.6164 26.9775C17.7423 27.1356 19.6694 27.7354 21.3845 28.776L21.465 28.827L26.8995 28.8278C28.9872 28.8278 30.7851 30.0686 31.596 31.853L36.9711 28.8772C38.983 27.7633 41.4788 28.0403 43.1975 29.5682C43.6607 29.9799 43.6365 30.6993 43.1742 31.0833L43.0759 31.1554L30.8484 39.0574C27.9735 40.9153 24.4473 41.454 21.1577 40.5505L20.8061 40.4482L14.5366 38.5191C13.7353 38.2725 12.8706 38.3733 12.1505 38.7905L11.9736 38.9014L11 39.56V40C11 40.5523 10.5523 41 10 41H4C3.44772 41 3 40.5523 3 40V27C3 26.4477 3.44772 26 4 26ZM11 37.1492C12.1532 36.4266 13.5506 36.2061 14.8683 36.536L15.1248 36.6075L21.3943 38.5366C24.1135 39.3733 27.0549 39.0108 29.4848 37.5509L29.7629 37.3776L40.624 30.357L40.4598 30.3097C39.6925 30.1097 38.8642 30.1785 38.1232 30.5325L37.9398 30.6269L32.0534 33.8858L32.0554 33.9837C32.0554 34.4965 31.6694 34.9192 31.1721 34.977L31.0554 34.9837H22.9865V32.9837L29.892 32.983L29.8836 32.9538C29.4752 31.7703 28.3826 30.9057 27.0786 30.8328L26.8995 30.8278H21.1786C20.9847 30.8278 20.795 30.7714 20.6326 30.6655C19.121 29.6802 17.4048 29.116 15.4681 28.972C13.7793 28.8464 12.3021 29.2203 11 30.0995V37.1492ZM9 39V28H5V39H9Z" fill="#626873"/>
<path fill-rule="evenodd" clip-rule="evenodd" d="M24 5C18.201 5 13.5 9.70101 13.5 15.5C13.5 21.299 18.201 26 24 26C29.799 26 34.5 21.299 34.5 15.5C34.5 9.70101 29.799 5 24 5ZM24 7C28.6944 7 32.5 10.8056 32.5 15.5C32.5 20.1944 28.6944 24 24 24C19.3056 24 15.5 20.1944 15.5 15.5C15.5 10.8056 19.3056 7 24 7ZM29 13.5C29 11.5603 27.437 10 25.5024 10H22L21.8827 10.0067C21.7397 10.0233 21.6062 10.0698 21.4891 10.1402L21.4316 10.1764C21.2483 10.3031 21.11 10.4896 21.0433 10.7081L21.024 10.7824C21.0083 10.8532 21 10.9269 21 11.0025V15H20L19.8834 15.0067C19.386 15.0645 19 15.4872 19 16C19 16.5523 19.4477 17 20 17H21V18H20.0029C19.4379 18 19 18.4477 19 19C19 19.5561 19.449 20 20.0029 20H21V20.9975C21 21.5442 21.4477 22 22 22L22.1173 21.9933C22.6173 21.9353 23 21.5116 23 20.9975V20H24.9971C25.5621 20 26 19.5523 26 19L25.9933 18.8827C25.9353 18.3827 25.5114 18 24.9971 18H23V17H25.5024L25.6937 16.9948C27.5306 16.8949 29 15.3658 29 13.5ZM23 12H25.5024L25.6472 12.0068C26.4093 12.0789 27 12.7147 27 13.5C27 14.3248 26.3237 15 25.5024 15H23V12Z" fill="#BE0318"/>
</svg>
