<svg width="68" height="68" viewBox="0 0 68 68" fill="none" xmlns="http://www.w3.org/2000/svg">
<path fill-rule="evenodd" clip-rule="evenodd" d="M11 22.4966H13V48.9966H56V22.4966H58V59L57.9945 59.1492C57.9182 60.1841 57.0544 61 56 61H48V59H56V50.9966H13V59H21V61H13C11.9456 61 11.0818 60.1841 11.0055 59.1492L11 59V22.4966Z" fill="#ADB8C7"/>
<path fill-rule="evenodd" clip-rule="evenodd" d="M56.972 17.331H57.988C58.549 17.331 59.003 17.786 59.003 18.346V23.678C59.003 24.239 58.55 24.694 57.986 24.694H56.974V27.233C56.974 27.514 56.746 27.741 56.465 27.741H52.338V32.203H52.374C53.214 32.203 53.899 32.884 53.899 33.726V39.65C53.899 40.154 53.649 40.6 53.272 40.875C53.649 41.155 53.899 41.598 53.899 42.102V44.481C53.899 45.32 53.216 46.004 52.374 46.004H51.61V48.455C51.61 49.016 50.923 49.469 50.069 49.469H44.932C44.076 49.469 43.387 49.016 43.387 48.455V46.004H25.609V48.457C25.609 49.018 24.921 49.471 24.07 49.471H18.932C18.08 49.471 17.391 49.018 17.391 48.457V46.006H16.627C15.786 46.006 15.104 45.325 15.104 44.483V42.104C15.104 41.6 15.352 41.154 15.729 40.877C15.352 40.599 15.104 40.156 15.104 39.652V33.728C15.104 32.888 15.785 32.206 16.627 32.206H16.665V27.742H12.536C12.256 27.742 12.029 27.516 12.029 27.235V24.696H11.015C10.454 24.696 10 24.241 10 23.68V18.348C10 17.787 10.454 17.332 11.015 17.332H12.029V14.793C12.029 14.511 12.256 14.285 12.536 14.285H16.665V9.524C16.665 8.682 17.347 8 18.189 8H50.812C51.653 8 52.335 8.682 52.335 9.524V14.286H56.466C56.745 14.286 56.972 14.51 56.972 14.792V17.331ZM13.043 24.695V26.727H16.665L16.664 15.301H13.043V17.332H14.057C14.619 17.332 15.073 17.786 15.073 18.347V23.68C15.073 24.24 14.619 24.695 14.057 24.695H13.043ZM18.907 44.733C18.135 44.733 17.51 44.108 17.51 43.337C17.51 42.566 18.137 41.942 18.907 41.942C19.677 41.942 20.303 42.567 20.303 43.337C20.303 44.11 19.678 44.733 18.907 44.733ZM21.234 43.337C21.234 44.108 21.858 44.733 22.63 44.733C23.402 44.733 24.026 44.11 24.026 43.337C24.026 42.567 23.402 41.942 22.63 41.942C21.86 41.942 21.234 42.566 21.234 43.337ZM24.259 38.979H17.488V34.832H24.259V38.979ZM26.459 39.206V41.051H42.541V39.206H26.459ZM26.459 38.141V35.829H42.541V38.141H26.459ZM26.459 32.451V34.762H42.541V32.451H26.459ZM26.459 31.386V29.076H42.541V31.386H26.459ZM19.712 11.048V21.868H49.289V11.048H19.712ZM46.373 44.733C45.598 44.733 44.977 44.108 44.977 43.337C44.977 42.566 45.602 41.942 46.373 41.942C47.144 41.942 47.768 42.567 47.768 43.337C47.768 44.11 47.145 44.733 46.373 44.733ZM48.7 43.337C48.7 44.108 49.323 44.733 50.094 44.733C50.865 44.733 51.492 44.11 51.492 43.337C51.492 42.567 50.869 41.942 50.094 41.942C49.325 41.942 48.7 42.566 48.7 43.337ZM51.512 38.979H44.741V34.832H51.512V38.979ZM54.941 17.331H55.957V15.3H52.333V26.726H55.957V24.695H54.941C54.378 24.695 53.927 24.24 53.927 23.679V18.347C53.927 17.786 54.379 17.331 54.941 17.331Z" fill="#009DFF"/>
</svg>
