<svg width="18" height="17" viewBox="0 0 18 17" fill="none" xmlns="http://www.w3.org/2000/svg">
<path fill-rule="evenodd" clip-rule="evenodd" d="M16.0746 5.71815L16.0606 5.71114V0.833496H2.12318V5.63569C2.05348 5.65895 1.98795 5.68621 1.92527 5.71815C1.54895 5.9099 1.24299 6.21586 1.05124 6.59218C0.833252 7.02001 0.833252 7.58006 0.833252 8.70016V14.9835C0.833252 15.5435 0.833252 15.8236 0.942245 16.0375C1.03812 16.2256 1.1911 16.3786 1.37926 16.4745C1.59317 16.5835 1.8732 16.5835 2.43325 16.5835H15.5666C16.1266 16.5835 16.4067 16.5835 16.6206 16.4745C16.8087 16.3786 16.9617 16.2256 17.0576 16.0375C17.1666 15.8236 17.1666 15.5435 17.1666 14.9835V8.70016C17.1666 7.58006 17.1666 7.02001 16.9486 6.59218C16.7569 6.21586 16.4509 5.9099 16.0746 5.71815ZM14.544 8.78384L9.00296 11.4043L3.6399 8.8443V2.35016H14.544V8.78384ZM5.49992 4.3335H12.4999V5.50016H5.49992V4.3335ZM10.1666 6.66683H5.49992V7.8335H10.1666V6.66683Z" fill="#E4011A"/>
</svg>
