<svg width="19" height="20" viewBox="0 0 19 20" fill="none" xmlns="http://www.w3.org/2000/svg">
<path fill-rule="evenodd" clip-rule="evenodd" d="M19.0001 10H17.0001C17.0001 5.58172 13.4184 2 9.00011 2V0C14.523 0 19.0001 4.47715 19.0001 10ZM15.0001 10H13.0001C13.0001 7.79086 11.2092 6 9.00011 6V4C12.3138 4 15.0001 6.68629 15.0001 10ZM6.31307 6.52029L3.236 2.96982C2.9427 2.6314 2.43058 2.59482 2.09215 2.88812C2.07759 2.90074 2.06347 2.91388 2.04984 2.92751L0.219313 4.75805C0.159886 4.81747 0.0192434 5.14338 0.0125999 5.24883C-0.159438 7.9796 1.54893 11.5645 4.49029 14.5059C7.44283 17.4584 10.9957 19.1737 13.7272 18.9878C13.8395 18.9802 14.2091 18.8059 14.2837 18.7312L16.069 16.946C16.3856 16.6293 16.3856 16.1159 16.069 15.7992C16.0553 15.7856 16.0412 15.7725 16.0267 15.7599L12.4762 12.6828C12.1547 12.4042 11.6726 12.4214 11.3717 12.7222L9.53168 14.5622C8.51058 14.0539 7.50059 13.3355 6.58064 12.4155C5.6607 11.4956 4.94226 10.4856 4.43393 9.46448L6.27367 7.62474C6.57449 7.32392 6.59169 6.84178 6.31307 6.52029Z" fill="#E4011A"/>
</svg>
