<svg width="18" height="17" viewBox="0 0 18 17" fill="none" xmlns="http://www.w3.org/2000/svg">
<path fill-rule="evenodd" clip-rule="evenodd" d="M16.0746 5.71766L16.0606 5.71066V0.833008H2.12318V5.6352C2.05348 5.65846 1.98795 5.68572 1.92527 5.71766C1.54895 5.90941 1.24299 6.21537 1.05124 6.59169C0.833252 7.01952 0.833252 7.57957 0.833252 8.69967V14.983C0.833252 15.5431 0.833252 15.8231 0.942245 16.037C1.03812 16.2252 1.1911 16.3781 1.37926 16.474C1.59317 16.583 1.8732 16.583 2.43325 16.583H15.5666C16.1266 16.583 16.4067 16.583 16.6206 16.474C16.8087 16.3781 16.9617 16.2252 17.0576 16.037C17.1666 15.8231 17.1666 15.5431 17.1666 14.983V8.69968C17.1666 7.57957 17.1666 7.01952 16.9486 6.59169C16.7569 6.21537 16.4509 5.90941 16.0746 5.71766ZM14.544 8.78335L9.00296 11.4039L3.6399 8.84381V2.34968H14.544V8.78335ZM5.49992 4.33301H12.4999V5.49967H5.49992V4.33301ZM10.1666 6.66634H5.49992V7.83301H10.1666V6.66634Z" fill="#E4011A"/>
</svg>
