<svg width="16" height="21" viewBox="0 0 16 21" fill="none" xmlns="http://www.w3.org/2000/svg">
<path fill-rule="evenodd" clip-rule="evenodd" d="M8 0.25C3.86448 0.25 0.5 3.61448 0.5 7.74996C0.5 12.8822 7.21177 20.4167 7.49752 20.7349C7.76593 21.0339 8.23455 21.0333 8.50248 20.7349C8.78823 20.4167 15.5 12.8822 15.5 7.74996C15.4999 3.61448 12.1355 0.25 8 0.25ZM8.00002 12.0001C5.79438 12.0001 4 10.2057 4 8.00002C4 5.79438 5.79442 4 8.00002 4C10.2056 4 12 5.79442 12 8.00006C12 10.2057 10.2056 12.0001 8.00002 12.0001Z" fill="#E4011A"/>
</svg>
