<svg width="16" height="16" viewBox="0 0 16 16" fill="none" xmlns="http://www.w3.org/2000/svg">
<path fill-rule="evenodd" clip-rule="evenodd" d="M7.45933 13H7.459V13.002L7.45933 13ZM13.624 13H7.45933C7.48611 12.8376 7.5 12.6713 7.5 12.502C7.5 10.845 6.157 9.50198 4.5 9.50198C3.457 9.50198 2.537 10.035 2 10.843V8.00198H3.538C3.793 8.00198 4 7.79498 4 7.53998V5.46298C4 5.20798 3.793 5.00098 3.538 5.00098H2V3.00098H11C13.006 3.00098 14.006 3.66798 14 5.00098H13.5C13.224 5.00098 13 5.22498 13 5.50098V8.00098C13 8.66798 13.333 9.33398 14 10.001V12.621C14 12.83 13.832 13 13.624 13ZM6 12.5C6 13.328 5.328 14 4.5 14C3.672 14 3 13.328 3 12.5C3 11.672 3.672 11 4.5 11C5.328 11 6 11.672 6 12.5ZM5.462 4.99998H7.539C7.794 4.99998 8.001 5.20698 8.001 5.46198V7.53898C8.001 7.79398 7.794 8.00098 7.539 8.00098H5.462C5.207 8.00098 5 7.79398 5 7.53898V5.46198C5 5.20698 5.207 4.99998 5.462 4.99998ZM11.539 4.99998H9.462C9.207 4.99998 9 5.19298 9 5.43098V11.569C9 11.807 9.207 12 9.462 12H11.539C11.794 12 12.001 11.807 12.001 11.569V5.43098C12.001 5.19298 11.794 4.99998 11.539 4.99998Z" fill="#00A959"/>
</svg>
