<svg width="16" height="16" viewBox="0 0 16 16" fill="none" xmlns="http://www.w3.org/2000/svg">
<path fill-rule="evenodd" clip-rule="evenodd" d="M6.30804 2.49365C6.42472 2.24196 6.73365 2.14667 6.97184 2.28889C7.17196 2.40838 7.2535 2.65703 7.16299 2.87182L6.44316 4.58009C6.33271 4.8422 6.02595 4.9594 5.76874 4.83799C5.52024 4.72069 5.41277 4.42474 5.52835 4.17544L6.30804 2.49365ZM2.97179 6.59655C2.91078 6.28749 3.14731 5.9997 3.46232 5.9997H11.9999H12.5376C12.5493 5.9997 12.5608 6.0001 12.5722 6.00087L13.4325 6.00263C14.056 6.0039 14.5263 6.56908 14.4142 7.18234L14.1207 8.7892C13.9481 9.73374 13.1287 10.4224 12.1685 10.4297L12.1333 10.43C11.6199 11.3767 10.6193 11.9997 9.49577 11.9997H6.50415C5.07132 11.9997 3.83849 10.9865 3.56096 9.58077L2.97179 6.59655ZM3.5999 12.9997C3.26853 12.9997 2.9999 13.2683 2.9999 13.5997C2.9999 13.9311 3.26853 14.1997 3.5999 14.1997H12.3999C12.7313 14.1997 12.9999 13.9311 12.9999 13.5997C12.9999 13.2683 12.7313 12.9997 12.3999 12.9997H3.5999ZM8.9375 2.29786C8.70089 2.15659 8.39403 2.25125 8.27812 2.50126L7.51172 4.15437C7.39186 4.41291 7.5208 4.71848 7.78964 4.81301C8.02786 4.89677 8.29039 4.78284 8.39193 4.55164L9.12462 2.88332C9.21879 2.6689 9.13857 2.41792 8.9375 2.29786ZM10.3394 2.50126C10.4553 2.25125 10.7622 2.15659 10.9988 2.29786C11.1998 2.41792 11.2801 2.6689 11.1859 2.88332L10.4532 4.55164C10.3517 4.78284 10.0891 4.89677 9.85092 4.81301C9.58208 4.71848 9.45314 4.41291 9.573 4.15437L10.3394 2.50126ZM12.7957 6.99102C12.542 6.98463 12.3238 7.16924 12.2881 7.42045L12.143 8.43997C12.1017 8.73095 12.3328 8.98885 12.6266 8.97943C12.8439 8.97246 13.0284 8.81831 13.074 8.60575L13.2904 7.59613C13.3561 7.28989 13.1272 6.99937 12.8141 6.99149L12.7957 6.99102Z" fill="white"/>
</svg>
