<svg width="57" height="30" viewBox="0 0 57 30" fill="none" xmlns="http://www.w3.org/2000/svg">
<path fill-rule="evenodd" clip-rule="evenodd" d="M52.7992 14.4058H35.4211L29.4888 0L28.3975 2.69204L23.655 14.4058H5.06272L0 26.0388L28.3975 29.8868L29.2262 30L57 26.0388L52.7992 14.4058ZM29.1442 26.6533L28.3975 26.6289L1.64918 25.6993L5.92402 16.0469H23.5566L28.3975 3.85615L29.4888 1.12359L35.4043 16.0469H51.8392L55.1537 25.6993L29.1442 26.6533ZM53.2257 21.8191L51.494 21.035L52.4461 19.7496L51.5765 16.7343H37.7753L39.1783 19.653H46.9568L45.8899 21.035L47.2277 22.2556H36.5611L29.4888 2.58698L28.3975 5.38408L22.5228 20.5334H19.8807L19.1096 16.734H14.3917L12.1354 19.8385L10.3878 16.734H6.30151L2.59306 25.101H6.54769L8.27883 22.2556L9.58343 25.101H14.5721L16.1393 22.0776L17.7066 25.101H25.1402L26.6255 23.2903L28.3978 24.4139L29.4891 25.101L32.0901 23.2903L33.5093 25.101H54.3661L53.2257 21.8191ZM29.4888 21.2127L28.3975 20.4608L27.2324 19.6527L28.3975 16.9363L29.4888 14.4058L31.6791 19.6527L29.4888 21.2127Z" fill="#E4011A"/>
</svg>
