<svg width="92" height="20" viewBox="0 0 92 20" fill="none" xmlns="http://www.w3.org/2000/svg">
<path fill-rule="evenodd" clip-rule="evenodd" d="M1.15481 6.6842C4.13147 2.81358 9.9992 0.327952 11.2789 0.210478C11.2789 0.210478 15.8785 -1.30989 17.6028 3.80289C19.3272 8.91567 18.4719 14.3228 17.5958 16.1582C17.1444 17.1041 15.7207 20.0382 10.9447 18.7574C7.57239 17.8693 4.46683 16.174 1.89595 13.8178C1.89595 13.8178 -1.82184 10.5548 1.15481 6.6842ZM3.22243 12.5615C4.40545 15.4168 7.19202 17.2784 10.2827 17.278C12.3092 17.2779 14.2526 16.4727 15.6855 15.0397C17.1183 13.6067 17.9232 11.6632 17.9231 9.63669C17.9231 6.54599 16.0613 3.75963 13.2058 2.57695C10.3503 1.39427 7.06361 2.0482 4.87828 4.23378C2.69296 6.41937 2.03942 9.70618 3.22243 12.5615ZM14.1758 4.89168H14.1739C13.8041 4.66635 13.3746 4.55879 12.9423 4.58328H7.36196C6.96622 4.57185 6.57559 4.67481 6.2369 4.87982V4.90258L6.20305 4.90264C5.66804 5.34023 5.21737 5.87177 4.87319 6.47116H6.21807C6.35606 6.29449 6.50605 6.12752 6.66695 5.97143L6.6717 5.97223C6.85596 5.7707 7.12239 5.66469 7.39474 5.68455H13.0328C13.2534 5.69983 13.4656 5.77535 13.6462 5.9029C14.5043 6.69529 15.0628 7.75935 15.2275 8.91562C15.1636 9.00561 15.062 9.06139 14.9518 9.06701H4.66162C4.31547 9.12514 4.05533 9.41462 4.03436 9.76499V9.80435C4.02052 9.8655 4.01333 9.92796 4.01292 9.99065C4.11061 11.6725 4.89064 13.2416 6.17249 14.3348L6.2369 14.3349V14.3555C6.57559 14.5605 6.96623 14.6635 7.36196 14.652H12.9423C13.3759 14.6772 13.8068 14.5687 14.1767 14.3411L14.2125 14.3412C14.7112 13.909 15.1416 13.4038 15.4891 12.8428H14.1345C13.9986 13.0034 13.8539 13.1564 13.7011 13.301C13.5264 13.4793 13.2816 13.5708 13.0328 13.5508H7.39475C7.1224 13.5706 6.85596 13.4646 6.67171 13.2631C6.66331 13.2636 6.65505 13.2654 6.64717 13.2683C5.82904 12.4726 5.30331 11.4241 5.15504 10.2925C5.21391 10.2199 5.30026 10.1749 5.39353 10.1683H15.7496C16.1394 10.0718 16.404 9.71 16.378 9.30935L16.3843 9.31371V9.30101L16.3782 9.29795C16.2859 7.58758 15.4884 5.99207 14.1758 4.89168ZM58.8201 5.65214C58.4912 5.23422 58.049 4.91972 57.5464 4.74614C56.9311 4.55672 56.2881 4.4734 55.6448 4.49975H51.4968C50.1196 4.49975 49.0905 4.81199 48.4155 5.45889C47.6993 6.26497 47.3339 7.32318 47.4 8.39942V10.9465C47.4 13.3993 48.8098 14.652 51.6183 14.652H55.7258C56.4698 14.6671 57.2072 14.51 57.8805 14.1931C58.2689 14.0185 58.5961 13.7317 58.8201 13.3696V15.6229C58.8206 16.2199 58.5494 16.7847 58.0831 17.1576C57.3285 17.5596 56.4782 17.7471 55.6246 17.6997H51.8816C51.1439 17.7133 50.4151 17.537 49.7651 17.1878C49.3802 16.931 49.1369 16.5096 49.1069 16.0478L47.9271 16.0476C47.8851 16.8818 48.2681 17.6806 48.9449 18.1702C49.7801 18.6933 50.7555 18.9479 51.7398 18.8998H55.7258C57.2246 18.8998 58.342 18.5995 59.0578 17.9792C59.703 17.3959 60.0494 16.5518 60 15.6835V4.49975H58.8201V5.65214ZM58.8091 10.6486C58.8366 11.4191 58.5352 12.165 57.98 12.7C57.3154 13.272 56.4523 13.5593 55.5775 13.4998H52.0498C51.124 13.569 50.2018 13.3246 49.4318 12.8059C48.8297 12.2492 48.522 11.4433 48.6 10.627V8.48087C48.5226 7.69179 48.8092 6.91049 49.3786 6.35871C49.9102 5.91341 50.7879 5.69975 52.0498 5.69975H55.5775C56.4657 5.63005 57.3462 5.90815 58.0331 6.47535C58.5647 7.00368 58.8468 7.73297 58.8091 8.48148V10.6486ZM72.9843 4.53275H69.1362C68.374 4.51194 67.6167 4.65929 66.9179 4.96432C66.4785 5.15867 66.1195 5.49848 65.9013 5.92654V4.53275H64.8V14.652H65.9013V8.49941C65.8936 7.66162 66.2259 6.85651 66.8224 6.26813C67.4633 5.78809 68.2591 5.56222 69.0566 5.63403H73.0202C73.8751 5.59153 74.7173 5.85459 75.396 6.37616C75.9551 6.91659 76.2509 7.67394 76.206 8.45027V14.6473L77.3859 14.6508V8.69975C77.4462 7.63539 77.1013 6.58766 76.4205 5.76727C75.6778 4.94534 74.5235 4.53275 72.9843 4.53275ZM37.9362 4.53275H41.7843C43.3235 4.53275 44.4778 4.94534 45.2205 5.76727C45.9013 6.58766 46.2462 7.63539 46.1859 8.69975V14.6508L45.006 14.6473V8.45027C45.0509 7.67394 44.7551 6.91659 44.196 6.37616C43.5173 5.85459 42.6751 5.59153 41.8202 5.63403H37.8566C37.0591 5.56222 36.2633 5.78809 35.6224 6.26813C35.0259 6.85651 34.6936 7.66162 34.7013 8.49941V14.652H33.6V4.53275H34.7013V5.92654C34.9195 5.49848 35.2785 5.15867 35.7179 4.96432C36.4166 4.65929 37.174 4.51194 37.9362 4.53275ZM61.8 2.09975H63V3.29975H61.8V2.09975ZM63 4.49975H61.8V14.6998H63V4.49975ZM32.4 8.081V9.89975H21V11.1185C21.0015 12.433 22.0667 13.4983 23.3812 13.4998H29.2C30.224 13.4965 31.0794 12.7188 31.1798 11.6998H32.3797C32.2739 13.3805 30.884 14.6918 29.2 14.6998H23.3812C21.4058 14.694 19.8058 13.094 19.8 11.1185V8.081C19.8058 6.10553 21.4058 4.50554 23.3812 4.49975H28.8187C30.7942 4.50553 32.3942 6.10553 32.4 8.081ZM28.8187 5.69975H23.3812C22.0667 5.70125 21.0015 6.76649 21 8.081V8.69975H31.2V8.081C31.1985 6.76649 30.1333 5.70123 28.8187 5.69975ZM91.2 9.89975V8.081C91.1942 6.10553 89.5942 4.50553 87.6187 4.49975H82.1812C80.2058 4.50554 78.6058 6.10553 78.6 8.081V11.1185C78.6058 13.094 80.2058 14.694 82.1812 14.6998H88C89.684 14.6918 91.0739 13.3805 91.1797 11.6998H89.9798C89.8794 12.7188 89.024 13.4965 88 13.4998H82.1812C80.8667 13.4983 79.8015 12.433 79.8 11.1185V9.89975H91.2ZM82.1812 5.69975H87.6187C88.9333 5.70123 89.9985 6.76649 90 8.081V8.69975H79.8V8.081C79.8015 6.76649 80.8667 5.70125 82.1812 5.69975Z" fill="#626873"/>
</svg>
