<svg width="124" height="31" viewBox="0 0 124 31" fill="none" xmlns="http://www.w3.org/2000/svg">
<path fill-rule="evenodd" clip-rule="evenodd" d="M0 15.5C0 6.93959 6.93959 0 15.5 0C24.0604 0 31 6.93959 31 15.5C31 24.0604 24.0604 31 15.5 31C6.93959 31 0 24.0604 0 15.5ZM30 15.5C30 7.49187 23.5081 1 15.5 1C7.49187 1 1 7.49187 1 15.5C1 23.5081 7.49187 30 15.5 30C23.5081 30 30 23.5081 30 15.5Z" fill="url(#paint0_radial)"/>
<path fill-rule="evenodd" clip-rule="evenodd" d="M27.7516 20.1854C27.3169 21.5147 26.6996 22.7617 25.9306 23.8978L10.2976 23.8968C7.34868 23.8968 4.76366 22.3387 3.32087 20.0008L27.5325 20.0012L27.7516 20.1854ZM12.1036 19.0015L2.79534 19.0007C2.389 18.0772 2.14816 17.0645 2.11039 16L11.5115 16.0007C11.5611 17.0716 11.7687 18.0856 12.1036 19.0015ZM26.6267 19.0011L16.1539 19.0013C15.7911 18.0855 15.5662 17.0717 15.5124 16.001L25.5205 16.0008C25.6042 17.0138 25.9395 17.9553 26.4638 18.7629L26.6267 19.0011ZM11.4999 15.5L2.10791 15.4997L2.10891 15.4538C2.14615 14.2136 2.45906 13.0426 2.98844 12.0001L12.1033 11.9994C11.7168 13.0567 11.4999 14.2446 11.4999 15.5ZM25.4999 15.5H15.4999C15.4999 14.2446 15.7349 13.0567 16.1536 11.9994L26.6276 11.9993C25.9176 12.9841 25.4999 14.1933 25.4999 15.5ZM26.1982 7.51172C26.844 8.53614 27.3692 9.64417 27.7541 10.8159C27.6798 10.8752 27.607 10.9363 27.5356 10.999L3.58931 11.0004C5.02663 8.95443 7.37624 7.59582 10.0471 7.51562L10.2976 7.51186L26.1982 7.51172Z" fill="url(#paint1_linear)"/>
<mask id="mask0" mask-type="alpha" maskUnits="userSpaceOnUse" x="2" y="7" width="26" height="17">
<path fill-rule="evenodd" clip-rule="evenodd" d="M27.7516 20.1854C27.3169 21.5147 26.6996 22.7617 25.9306 23.8978L10.2976 23.8968C7.34868 23.8968 4.76366 22.3387 3.32087 20.0008L27.5325 20.0012L27.7516 20.1854ZM12.1036 19.0015L2.79534 19.0007C2.389 18.0772 2.14816 17.0645 2.11039 16L11.5115 16.0007C11.5611 17.0716 11.7687 18.0856 12.1036 19.0015ZM26.6267 19.0011L16.1539 19.0013C15.7911 18.0855 15.5662 17.0717 15.5124 16.001L25.5205 16.0008C25.6042 17.0138 25.9395 17.9553 26.4638 18.7629L26.6267 19.0011ZM11.4999 15.5L2.10791 15.4997L2.10891 15.4538C2.14615 14.2136 2.45906 13.0426 2.98844 12.0001L12.1033 11.9994C11.7168 13.0567 11.4999 14.2446 11.4999 15.5ZM25.4999 15.5H15.4999C15.4999 14.2446 15.7349 13.0567 16.1536 11.9994L26.6276 11.9993C25.9176 12.9841 25.4999 14.1933 25.4999 15.5ZM26.1982 7.51172C26.844 8.53614 27.3692 9.64417 27.7541 10.8159C27.6798 10.8752 27.607 10.9363 27.5356 10.999L3.58931 11.0004C5.02663 8.95443 7.37624 7.59582 10.0471 7.51562L10.2976 7.51186L26.1982 7.51172Z" fill="white"/>
</mask>
<g mask="url(#mask0)">
<path fill-rule="evenodd" clip-rule="evenodd" d="M16.5323 6.49878C14.834 7.81483 13.5009 9.33739 12.6346 11.0003L2.5 11V12L12.1772 12.0005C11.7351 13.119 11.5 14.2917 11.5 15.5H1.5V16L11.5135 16.0001C11.5691 17.0325 11.7965 18.0365 12.1775 19.0003L2.5 19V20L12.6347 20C13.73 22.1025 15.5716 23.9806 17.954 25.5006L-0.5 25.5V6.50005L16.5323 6.49878Z" fill="url(#paint2_linear)"/>
</g>
<path fill-rule="evenodd" clip-rule="evenodd" d="M98.5 11V21.3103H99.359L98.5 22V23H94.5V18L93.5 19H90.5C88.2909 19 86.5 17.2091 86.5 15C86.5 12.7909 88.2909 11 90.5 11H98.5ZM119.359 11C121.568 11 123.359 12.7909 123.359 15C123.359 17.1422 121.675 18.8911 119.559 18.9951L119.359 19H116.359L115.359 18V21.3103H115.953L115.359 22V23H111.359V11H119.359ZM45.5 11V17.3103H46.359L45.5 18V19H41.5V18L40.5 19H37.5C35.2909 19 33.5 17.2091 33.5 15C33.5 12.7909 35.2909 11 37.5 11H45.5ZM67.5 7V13.765L68.4021 13.7657L69.8846 11H74.2014L72.3798 14.555L74.2942 17.4548L73.5904 18.8636H69.6531L68.3028 16.0717L67.5 16.071V19H63.5V10H62.5L63.5 7H67.5ZM81.5 11C83.7091 11 85.5 12.7909 85.5 15C85.5 17.2091 83.7091 19 81.5 19H78.5C76.2909 19 74.5 17.2091 74.5 15C74.5 12.7909 76.2909 11 78.5 11H81.5ZM106.5 11C108.709 11 110.5 12.7909 110.5 15C110.5 17.2091 108.709 19 106.5 19H103.5C101.291 19 99.5 17.2091 99.5 15C99.5 12.7909 101.291 11 103.5 11H106.5ZM52.6074 11L54.6574 14.8011L56.2198 11H59.3807L62.3392 17.248H62.922L61.7304 18.8636H58.5395L57.027 16.0717L55.3323 18.8636H51.9933L50.4645 16.0717L49.2148 18.8636H46.2295L49.7503 11H52.6074ZM41.5 13H39.5C38.3954 13 37.5 13.8954 37.5 15C37.5 16.0544 38.3159 16.9182 39.3507 16.9945L39.5 17H41.5V13ZM94.5 13H92.5C91.3954 13 90.5 13.8954 90.5 15C90.5 16.0544 91.3159 16.9182 92.3507 16.9945L92.5 17H94.5V13ZM117.359 13H115.359V17H117.359L117.508 16.9945C118.543 16.9182 119.359 16.0544 119.359 15C119.359 13.9456 118.543 13.0818 117.508 13.0055L117.359 13ZM80 13C79.1716 13 78.5 13.8954 78.5 15C78.5 16.1046 79.1716 17 80 17C80.8284 17 81.5 16.1046 81.5 15C81.5 13.8954 80.8284 13 80 13ZM105 13C104.172 13 103.5 13.8954 103.5 15C103.5 16.1046 104.172 17 105 17C105.828 17 106.5 16.1046 106.5 15C106.5 13.8954 105.828 13 105 13Z" fill="url(#paint3_linear)"/>
<defs>
<radialGradient id="paint0_radial" cx="0" cy="0" r="1" gradientUnits="userSpaceOnUse" gradientTransform="translate(29.7285 21.5715) rotate(-151.422) scale(31.4351)">
<stop stop-color="#25B2E0"/>
<stop offset="1" stop-color="#2279AE"/>
</radialGradient>
<linearGradient id="paint1_linear" x1="27.7541" y1="10.5592" x2="11.6471" y2="10.5592" gradientUnits="userSpaceOnUse">
<stop stop-color="#15C4FF"/>
<stop offset="0.266106" stop-color="#17BBF5"/>
<stop offset="1" stop-color="#185580"/>
</linearGradient>
<linearGradient id="paint2_linear" x1="14.4048" y1="22.566" x2="14.4048" y2="8.08897" gradientUnits="userSpaceOnUse">
<stop stop-color="#0AC2FF"/>
<stop offset="0.24" stop-color="#186B9A"/>
<stop offset="0.755224" stop-color="#186C9A"/>
<stop offset="1" stop-color="#0AC2FF"/>
</linearGradient>
<linearGradient id="paint3_linear" x1="140.071" y1="23" x2="140.071" y2="7" gradientUnits="userSpaceOnUse">
<stop stop-color="#185580"/>
<stop offset="0.534908" stop-color="#17BBF5"/>
<stop offset="1" stop-color="#15C4FF"/>
</linearGradient>
</defs>
</svg>
