<svg width="66" height="34" viewBox="0 0 66 34" fill="none" xmlns="http://www.w3.org/2000/svg">
<path fill-rule="evenodd" clip-rule="evenodd" d="M61.1359 16.3266H41.0139L34.1449 0L32.8813 3.05098L27.39 16.3266H5.8621L0 29.5106L32.8813 33.8717L33.8408 34L66 29.5106L61.1359 16.3266ZM33.7459 30.207L32.8813 30.1795L1.90958 29.1258L6.8594 18.1865H27.276L32.8813 4.37031L34.1449 1.2734L40.9945 18.1865H60.0243L63.8622 29.1258L33.7459 30.207ZM61.6298 24.7283L59.6246 23.8397L60.727 22.3829L59.7202 18.9655H43.7398L45.3643 22.2734H54.3711L53.1356 23.8397L54.6847 25.223H42.334L34.1449 2.93191L32.8813 6.10196L26.079 23.2712H23.0198L22.1269 18.9652H16.6641L14.0515 22.4836L12.0279 18.9652H7.29649L3.00249 28.4478H7.58153L9.58601 25.223L11.0966 28.4478H16.873L18.6877 25.0212L20.5023 28.4478H29.1098L30.8295 26.3957L32.8816 27.6691L34.1453 28.4478L37.157 26.3957L38.8002 28.4478H62.9502L61.6298 24.7283ZM34.1449 24.0411L32.8813 23.1889L31.5323 22.273L32.8813 19.1945L34.1449 16.3266L36.6811 22.273L34.1449 24.0411Z" fill="#E4011A"/>
</svg>
