<svg width="80" height="80" viewBox="0 0 80 80" fill="none" xmlns="http://www.w3.org/2000/svg">
<path fill-rule="evenodd" clip-rule="evenodd" d="M70 8C71.5977 8 72.9037 9.24892 72.9949 10.8237L73 11V22C73 23.5977 71.7511 24.9037 70.1763 24.9949L70 25H66V40L44 39.999V37.999L64 38V27L46.2419 27.0005C45.4346 28.2062 44.06 29 42.5 29C40.0147 29 38 26.9853 38 24.5C38 22.0147 40.0147 20 42.5 20C43.4253 20 44.2854 20.2793 45.0005 20.7581L45 10L41.6583 10.0007C40.8345 12.3307 38.6122 14 36 14C33.3878 14 31.1655 12.3307 30.3417 10.0007L30 10C29.4872 10 29.0645 10.386 29.0067 10.8834L29 11V13H23C22.4872 13 22.0645 13.386 22.0067 13.8834L22 14L22.0004 15.0164C22.1655 15.0055 22.3321 15 22.5 15C26.6421 15 30 18.3579 30 22.5C30 26.6421 26.6421 30 22.5 30C22.3321 30 22.1655 29.9945 22.0004 29.9836L22 38L27 37.999V39.999L21.7101 40C21.8987 40.6337 22 41.305 22 42C22 45.866 18.866 49 15 49C11.134 49 8 45.866 8 42C8 38.7783 10.1764 36.065 13.1391 35.25L13.1802 35.008C13.6909 32.2218 15.2599 29.7581 17.5218 28.1087C15.9749 26.7361 15 24.7319 15 22.5C15 19.2345 17.087 16.4564 19.9999 15.4268L20 14C20 12.4023 21.2489 11.0963 22.8237 11.0051L23 11H27C27 9.40232 28.2489 8.09634 29.8237 8.00509L30 8H70ZM15 37C12.2386 37 10 39.2386 10 42C10 44.7614 12.2386 47 15 47C17.7614 47 20 44.7614 20 42C20 39.2386 17.7614 37 15 37ZM15 39C16.6569 39 18 40.3431 18 42C18 43.6569 16.6569 45 15 45C13.3431 45 12 43.6569 12 42C12 40.3431 13.3431 39 15 39ZM15 41C14.4477 41 14 41.4477 14 42C14 42.5523 14.4477 43 15 43C15.5523 43 16 42.5523 16 42C16 41.4477 15.5523 41 15 41ZM19.3374 29.3026L19.171 29.4036C17.2585 30.6213 15.8718 32.5162 15.2957 34.704L15.222 35.004L15.2406 35.0041C17.1038 35.067 18.7823 35.8581 20.0006 37.1017L19.9999 29.5732C19.7739 29.4933 19.5528 29.4029 19.3374 29.3026ZM22.5 17C19.4624 17 17 19.4624 17 22.5C17 25.5376 19.4624 28 22.5 28C25.5376 28 28 25.5376 28 22.5C28 19.4624 25.5376 17 22.5 17ZM42.5 22C41.1193 22 40 23.1193 40 24.5C40 25.8807 41.1193 27 42.5 27C43.8807 27 45 25.8807 45 24.5C45 23.1193 43.8807 22 42.5 22ZM22.5 19C24.433 19 26 20.567 26 22.5C26 24.433 24.433 26 22.5 26C20.567 26 19 24.433 19 22.5C19 20.567 20.567 19 22.5 19ZM47 10V25H58L58.0005 17.7424C57.0495 18.528 55.8299 19 54.5 19C51.4624 19 49 16.5376 49 13.5C49 12.1706 49.4717 10.9513 50.2568 10.0004L47 10ZM64 10L58.7434 10.0007C59.429 10.8311 59.8755 11.8661 59.9776 13.0004L60 13V25H64V10ZM22.5 21C21.6716 21 21 21.6716 21 22.5C21 23.3284 21.6716 24 22.5 24C23.3284 24 24 23.3284 24 22.5C24 21.6716 23.3284 21 22.5 21ZM70 10H66V23H70C70.5128 23 70.9355 22.614 70.9933 22.1166L71 22V11C71 10.4872 70.614 10.0645 70.1166 10.0067L70 10ZM54.5 10C52.567 10 51 11.567 51 13.5C51 15.433 52.567 17 54.5 17C56.433 17 58 15.433 58 13.5C58 11.567 56.433 10 54.5 10ZM39.464 10.0015L32.5358 10.0011C33.2275 11.1961 34.5199 12 36 12C37.48 12 38.7722 11.1963 39.464 10.0015Z" fill="#6E747A"/>
<path fill-rule="evenodd" clip-rule="evenodd" d="M39 31L39.0003 35.5041C40.347 35.8508 41.6251 36.3684 42.8101 37.0324L45.9602 33.883L51.617 39.5398L48.596 42.5609C49.3512 43.7751 49.9484 45.0978 50.3586 46.5003L54.5 46.5V54.5L50.6159 54.5006C50.2742 56.0314 49.7132 57.4795 48.9676 58.8101L51.617 61.4602L45.9602 67.117L43.4391 64.596C42.0818 65.4403 40.5888 66.087 39.0003 66.4959L39 70H31L31.0007 66.4961C29.4119 66.0873 27.9185 65.4405 26.5609 64.596L24.0398 67.117L18.383 61.4602L21.0324 58.8101C20.2868 57.4795 19.7258 56.0314 19.3841 54.5006L15.5 54.5V46.5L19.6414 46.5003C20.0516 45.0978 20.6488 43.7751 21.404 42.5609L18.383 39.5398L24.0398 33.883L27.1899 37.0324C28.3751 36.3682 29.6536 35.8505 31.0007 35.5039L31 31H39ZM35 39C28.3726 39 23 44.3726 23 51C23 57.6274 28.3726 63 35 63C37.5696 63 39.9506 62.1923 41.903 60.817L42.1926 60.6064L40.761 59.1748C39.1325 60.3246 37.1451 61 35 61C29.4772 61 25 56.5228 25 51C25 45.4772 29.4772 41 35 41C40.5228 41 45 45.4772 45 51C45 53.5407 44.0525 55.8601 42.4916 57.6241L42.275 57.8612L43.6896 59.276C45.7408 57.1229 47 54.2085 47 51C47 44.3726 41.6274 39 35 39ZM35 45C31.6863 45 29 47.6863 29 51C29 54.3137 31.6863 57 35 57C38.3137 57 41 54.3137 41 51C41 47.6863 38.3137 45 35 45ZM35 47C37.2091 47 39 48.7909 39 51C39 53.2091 37.2091 55 35 55C32.7909 55 31 53.2091 31 51C31 48.7909 32.7909 47 35 47Z" fill="#009DFF"/>
</svg>
