<svg width="72" height="36" viewBox="0 0 72 36" fill="none" xmlns="http://www.w3.org/2000/svg">
<path d="M32.8121 25.2549V5.52017H25.5969V0.854736H46.1686V5.52017H38.9534V25.2549H32.8121Z" fill="#0E456F"/>
<path fill-rule="evenodd" clip-rule="evenodd" d="M70.0061 19.1848C70.9961 17.3853 71.4929 15.3531 71.4929 13.0778H71.4998C71.4998 10.7225 71.0345 8.66954 70.1069 6.92569C69.1793 5.18545 67.915 3.79928 66.3101 2.77457C65.0004 1.93048 63.5969 1.40588 62.0963 1.18712C60.6027 0.96812 58.9977 0.857056 57.2851 0.857056H49.7156V25.2571H57.3441C59.0256 25.2571 60.6097 25.139 62.1033 24.9027C63.5902 24.6665 64.9725 24.1419 66.2371 23.3187C67.7517 22.3563 69.0093 20.9807 70.0061 19.1848ZM64.3611 8.90938C64.9099 10.0523 65.1844 11.4243 65.1844 13.0223L65.1809 13.019C65.1809 14.6239 64.9202 15.9787 64.3993 17.0903C63.8783 18.2021 63.1174 19.0703 62.1169 19.7027C61.2658 20.2411 60.3731 20.5328 59.4317 20.5815C58.4937 20.6335 57.3335 20.6545 55.9649 20.6545H55.8537V5.41839H55.9649C57.2294 5.41839 58.3131 5.43925 59.2198 5.48434C60.1265 5.52608 60.9985 5.77596 61.8217 6.23459C62.9613 6.87719 63.8123 7.77001 64.3611 8.90938Z" fill="#0E456F"/>
<path d="M0.0280762 35.199V32.0656H71.6267V35.199C47.7616 35.199 23.8932 35.199 0.0280762 35.199Z" fill="#EA0809"/>
<path fill-rule="evenodd" clip-rule="evenodd" d="M13.0618 0C16.3758 0 19.4014 1.23674 21.7046 3.26889L17.859 7.61816C16.5808 6.4891 14.8994 5.80474 13.0618 5.80474C9.0564 5.80474 5.8084 9.0528 5.8084 13.0582C5.8084 17.0634 9.0564 20.3114 13.0618 20.3114C14.6458 20.3114 16.1083 19.8043 17.2998 18.9427C17.2998 18.0258 17.2998 17.1085 17.2998 16.1914H13.0962V11.2864H22.5902V21.9823C20.2071 24.5252 16.8202 26.1162 13.0582 26.1162C5.84654 26.1162 0 20.2698 0 13.0582C0 5.84654 5.84654 0 13.0582 0H13.0618Z" fill="#0E456F"/>
</svg>
