<svg width="155" height="43" viewBox="0 0 155 43" fill="none" xmlns="http://www.w3.org/2000/svg">
<path d="M41.1188 0.0333639C34.8968 -0.365813 29.0043 2.8429 26.0051 8.26338L16.0799 26.2016L15.9645 26.3887C13.6929 29.9792 9.11805 32.1066 5.56687 30.5815C2.75777 29.3751 1.93996 25.9286 3.74958 22.3857C5.91629 18.1438 11.068 15.0876 18.2807 14.6425L18.1073 11.879L17.7379 11.904C9.76542 12.4918 3.85494 16.0517 1.25868 21.1347C-1.2197 25.9869 0.0213881 31.2173 4.45722 33.1223C9.52897 35.3003 15.5975 32.406 18.5028 27.5768L28.4531 9.59522L28.5834 9.36524C30.7456 5.63572 34.5878 3.22449 38.8328 2.827L38.9449 2.81743L31.9889 19.7695L31.9311 19.9182C31.1655 22.0059 32.1968 24.3374 34.2895 25.1818C34.7908 25.3841 35.327 25.4882 35.8682 25.4882H37.5335V22.7194H35.8682L35.7334 22.7129C35.5992 22.7 35.4673 22.6679 35.342 22.6173C34.6278 22.3291 34.2845 21.5214 34.5751 20.8132L42.3218 1.93669L42.3566 1.8426C42.6369 0.993474 42.0359 0.0921966 41.1188 0.0333639Z" fill="#FD0201"/>
<path fill-rule="evenodd" clip-rule="evenodd" d="M75.5742 41.4426V43H74.8455V38.6392H75.4172L75.4863 39.0628C75.5952 38.9008 75.7344 38.7804 75.904 38.7015C76.0737 38.6226 76.2695 38.5831 76.4915 38.5831C76.6715 38.5831 76.838 38.6153 76.9909 38.6797C77.1438 38.744 77.2747 38.8396 77.3836 38.9662C77.4924 39.0929 77.5783 39.2507 77.6411 39.4397C77.704 39.6287 77.7354 39.8477 77.7354 40.0969V40.2963C77.7354 40.5455 77.704 40.7635 77.6411 40.9504C77.5783 41.1373 77.4914 41.2951 77.3804 41.4239C77.2694 41.5526 77.1385 41.6492 76.9878 41.7136C76.837 41.7779 76.6715 41.8101 76.4915 41.8101C76.0978 41.8101 75.792 41.6876 75.5742 41.4426ZM76.2716 41.1373C76.0705 41.1373 75.904 41.0657 75.7721 40.9224C75.6402 40.7791 75.5742 40.5704 75.5742 40.2963V40.0596C75.5826 39.7979 75.6507 39.5986 75.7784 39.4615C75.9061 39.3244 76.0705 39.2559 76.2716 39.2559C76.4852 39.2559 76.6548 39.3244 76.7804 39.4615C76.9061 39.5986 76.9689 39.8104 76.9689 40.0969V40.2963C76.9689 40.5912 76.9082 40.805 76.7867 40.938C76.6653 41.0709 76.4935 41.1373 76.2716 41.1373Z" fill="#FD0201"/>
<path d="M73.0389 39.2746V41.754H72.3102V39.2746H71.3552V38.6392H73.9938V39.2746H73.0389Z" fill="#FD0201"/>
<path fill-rule="evenodd" clip-rule="evenodd" d="M80.123 41.6855C79.9492 41.7686 79.7513 41.8101 79.5294 41.8101C79.1901 41.8101 78.9325 41.7271 78.7566 41.5609C78.5807 41.3948 78.4928 41.1643 78.4928 40.8694C78.4928 40.7075 78.5189 40.5611 78.5713 40.4302C78.6236 40.2994 78.7074 40.1893 78.8226 40.1001C78.9378 40.0108 79.0864 39.9422 79.2686 39.8945C79.4508 39.8467 79.6738 39.8228 79.9377 39.8228H80.4654V39.6359C80.4654 39.4864 80.4246 39.3732 80.3429 39.2964C80.2613 39.2196 80.1262 39.1812 79.9377 39.1812C79.7618 39.1812 79.6341 39.2144 79.5545 39.2808C79.4749 39.3473 79.4267 39.4345 79.41 39.5425H78.6184C78.6352 39.2642 78.7493 39.0348 78.9608 38.8541C79.1723 38.6734 79.4979 38.5831 79.9377 38.5831C80.3565 38.5831 80.6707 38.6786 80.8801 38.8697C81.0895 39.0607 81.1942 39.3161 81.1942 39.6359V41.754H80.6225L80.5471 41.3242C80.4382 41.482 80.2969 41.6025 80.123 41.6855ZM79.655 41.2121C79.5294 41.2121 79.432 41.1788 79.3629 41.1124C79.2938 41.0459 79.2592 40.9566 79.2592 40.8445C79.2592 40.7033 79.3095 40.5912 79.41 40.5081C79.5105 40.425 79.6864 40.3835 79.9377 40.3835H80.4654V40.477C80.4654 40.5766 80.4445 40.6701 80.4026 40.7573C80.3607 40.8445 80.3042 40.9224 80.233 40.9909C80.1618 41.0594 80.077 41.1134 79.9785 41.1529C79.8801 41.1923 79.7723 41.2121 79.655 41.2121Z" fill="#FD0201"/>
<path d="M83.0573 40.4832V41.754H82.3285V38.6392H83.0573V39.8477H84.4268V38.6392H85.1556V41.754H84.4268V40.4832H83.0573Z" fill="#FD0201"/>
<path d="M87.6092 41.8101C88.0071 41.8101 88.316 41.7115 88.5359 41.5142C88.7558 41.3169 88.8971 41.0542 88.96 40.7261H88.1809C88.1474 40.8424 88.0836 40.94 87.9893 41.0189C87.8951 41.0978 87.7579 41.1373 87.5778 41.1373C87.4899 41.1373 87.4051 41.1207 87.3234 41.0875C87.2417 41.0542 87.1695 41.0034 87.1066 40.9348C87.0438 40.8663 86.9936 40.7791 86.9559 40.6732C86.9182 40.5673 86.8993 40.4417 86.8993 40.2963V40.0969C86.8993 39.9474 86.9171 39.8197 86.9527 39.7138C86.9883 39.6079 87.0375 39.5207 87.1004 39.4522C87.1632 39.3836 87.2354 39.3338 87.3171 39.3026C87.3988 39.2715 87.4857 39.2559 87.5778 39.2559C87.737 39.2559 87.8689 39.2912 87.9736 39.3618C88.0783 39.4324 88.1474 39.5238 88.1809 39.6359H88.96C88.8971 39.3244 88.7558 39.0711 88.5359 38.8759C88.316 38.6807 88.0071 38.5831 87.6092 38.5831C87.3873 38.5831 87.1852 38.6184 87.003 38.689C86.8208 38.7596 86.6648 38.8603 86.5349 38.9912C86.4051 39.122 86.3056 39.2808 86.2365 39.4677C86.1674 39.6546 86.1329 39.8644 86.1329 40.0969V40.2963C86.1329 40.533 86.1674 40.7448 86.2365 40.9317C86.3056 41.1186 86.4041 41.2775 86.5318 41.4083C86.6595 41.5391 86.8145 41.6388 86.9967 41.7073C87.1789 41.7759 87.3831 41.8101 87.6092 41.8101Z" fill="#FD0201"/>
<path d="M90.5717 39.2746V41.754H89.843V38.6392H92.5444V41.754H91.8157V39.2746H90.5717Z" fill="#FD0201"/>
<path fill-rule="evenodd" clip-rule="evenodd" d="M95.0295 41.8101C95.2598 41.8101 95.4682 41.7759 95.6546 41.7073C95.841 41.6388 96.0001 41.5391 96.132 41.4083C96.264 41.2775 96.3645 41.1186 96.4336 40.9317C96.5027 40.7448 96.5373 40.533 96.5373 40.2963V40.0969C96.5373 39.6193 96.4043 39.2476 96.1383 38.9818C95.8724 38.716 95.5027 38.5831 95.0295 38.5831C94.7949 38.5831 94.5855 38.6174 94.4012 38.6859C94.2169 38.7544 94.0588 38.8541 93.9269 38.9849C93.795 39.1157 93.6945 39.2746 93.6254 39.4615C93.5562 39.6484 93.5217 39.8602 93.5217 40.0969V40.2963C93.5217 40.7739 93.6547 41.1456 93.9206 41.4114C94.1866 41.6772 94.5562 41.8101 95.0295 41.8101ZM94.486 40.9286C94.618 41.0677 94.7991 41.1373 95.0295 41.1373C95.2682 41.1373 95.4514 41.0688 95.5792 40.9317C95.7069 40.7947 95.7708 40.5829 95.7708 40.2963V40.0969C95.7708 39.8145 95.7048 39.6037 95.5729 39.4646C95.441 39.3255 95.2598 39.2559 95.0295 39.2559C94.7907 39.2559 94.6075 39.3244 94.4798 39.4615C94.352 39.5986 94.2881 39.8104 94.2881 40.0969V40.2963C94.2881 40.5787 94.3541 40.7895 94.486 40.9286Z" fill="#FD0201"/>
<path fill-rule="evenodd" clip-rule="evenodd" d="M98.2433 43V41.4426C98.4611 41.6876 98.7668 41.8101 99.1605 41.8101C99.3406 41.8101 99.5061 41.7779 99.6568 41.7136C99.8076 41.6492 99.9385 41.5526 100.049 41.4239C100.16 41.2951 100.247 41.1373 100.31 40.9504C100.373 40.7635 100.404 40.5455 100.404 40.2963V40.0969C100.404 39.8477 100.373 39.6287 100.31 39.4397C100.247 39.2507 100.162 39.0929 100.053 38.9662C99.9437 38.8396 99.8128 38.744 99.66 38.6797C99.5071 38.6153 99.3406 38.5831 99.1605 38.5831C98.9385 38.5831 98.7427 38.6226 98.5731 38.7015C98.4035 38.7804 98.2642 38.9008 98.1553 39.0628L98.0862 38.6392H97.5145V43H98.2433ZM98.4412 40.9224C98.5731 41.0657 98.7396 41.1373 98.9406 41.1373C99.1626 41.1373 99.3343 41.0709 99.4558 40.938C99.5772 40.805 99.638 40.5912 99.638 40.2963V40.0969C99.638 39.8104 99.5752 39.5986 99.4495 39.4615C99.3239 39.3244 99.1542 39.2559 98.9406 39.2559C98.7396 39.2559 98.5752 39.3244 98.4475 39.4615C98.3197 39.5986 98.2517 39.7979 98.2433 40.0596V40.2963C98.2433 40.5704 98.3092 40.7791 98.4412 40.9224Z" fill="#FD0201"/>
<path d="M102.626 41.754V39.2746H103.581V38.6392H100.942V39.2746H101.897V41.754H102.626Z" fill="#FD0201"/>
<path d="M105.161 40.4832V41.754H104.432V38.6392H105.161V39.8477H106.53V38.6392H107.259V41.754H106.53V40.4832H105.161Z" fill="#FD0201"/>
<path fill-rule="evenodd" clip-rule="evenodd" d="M109.242 41.8101C109.464 41.8101 109.662 41.7686 109.835 41.6855C110.009 41.6025 110.151 41.482 110.259 41.3242L110.335 41.754H110.907V39.6359C110.907 39.3161 110.802 39.0607 110.592 38.8697C110.383 38.6786 110.069 38.5831 109.65 38.5831C109.21 38.5831 108.885 38.6734 108.673 38.8541C108.462 39.0348 108.348 39.2642 108.331 39.5425H109.122C109.139 39.4345 109.187 39.3473 109.267 39.2808C109.346 39.2144 109.474 39.1812 109.65 39.1812C109.839 39.1812 109.974 39.2196 110.055 39.2964C110.137 39.3732 110.178 39.4864 110.178 39.6359V39.8228H109.65C109.386 39.8228 109.163 39.8467 108.981 39.8945C108.799 39.9422 108.65 40.0108 108.535 40.1001C108.42 40.1893 108.336 40.2994 108.284 40.4302C108.231 40.5611 108.205 40.7075 108.205 40.8694C108.205 41.1643 108.293 41.3948 108.469 41.5609C108.645 41.7271 108.902 41.8101 109.242 41.8101ZM109.075 41.1124C109.144 41.1788 109.242 41.2121 109.367 41.2121C109.485 41.2121 109.592 41.1923 109.691 41.1529C109.789 41.1134 109.874 41.0594 109.945 40.9909C110.017 40.9224 110.073 40.8445 110.115 40.7573C110.157 40.6701 110.178 40.5766 110.178 40.477V40.3835H109.65C109.399 40.3835 109.223 40.425 109.122 40.5081C109.022 40.5912 108.972 40.7033 108.972 40.8445C108.972 40.9566 109.006 41.0459 109.075 41.1124Z" fill="#FD0201"/>
<path fill-rule="evenodd" clip-rule="evenodd" d="M112.543 41.754L113.059 40.7386C113.092 40.7428 113.126 40.7448 113.159 40.7448H113.699V41.754H114.428V38.6392H113.266C113.002 38.6392 112.779 38.6631 112.597 38.7108C112.415 38.7586 112.267 38.8271 112.154 38.9164C112.041 39.0057 111.958 39.1157 111.906 39.2466C111.853 39.3774 111.827 39.5259 111.827 39.692C111.827 39.9038 111.869 40.0866 111.953 40.2402C112.037 40.3939 112.175 40.5143 112.368 40.6015L111.727 41.754H112.543ZM113.266 40.1592H113.699V39.2248H113.266C113.01 39.2248 112.835 39.2642 112.738 39.3431C112.642 39.422 112.594 39.5383 112.594 39.692C112.594 39.8457 112.642 39.962 112.738 40.0409C112.835 40.1198 113.01 40.1592 113.266 40.1592Z" fill="#FD0201"/>
<path d="M118.242 41.754V40.452H118.556L119.398 41.754H120.278L119.16 40.1094L120.152 38.6392H119.31L118.556 39.8166H118.242V38.6392H117.514V41.754H118.242Z" fill="#FD0201"/>
<path fill-rule="evenodd" clip-rule="evenodd" d="M122.885 41.7073C122.699 41.7759 122.491 41.8101 122.26 41.8101C121.787 41.8101 121.417 41.6772 121.151 41.4114C120.885 41.1456 120.752 40.7739 120.752 40.2963V40.0969C120.752 39.8602 120.787 39.6484 120.856 39.4615C120.925 39.2746 121.026 39.1157 121.158 38.9849C121.29 38.8541 121.448 38.7544 121.632 38.6859C121.816 38.6174 122.026 38.5831 122.26 38.5831C122.734 38.5831 123.103 38.716 123.369 38.9818C123.635 39.2476 123.768 39.6193 123.768 40.0969V40.2963C123.768 40.533 123.734 40.7448 123.664 40.9317C123.595 41.1186 123.495 41.2775 123.363 41.4083C123.231 41.5391 123.072 41.6388 122.885 41.7073ZM122.26 41.1373C122.03 41.1373 121.849 41.0677 121.717 40.9286C121.585 40.7895 121.519 40.5787 121.519 40.2963V40.0969C121.519 39.8104 121.583 39.5986 121.711 39.4615C121.838 39.3244 122.022 39.2559 122.26 39.2559C122.491 39.2559 122.672 39.3255 122.804 39.4646C122.936 39.6037 123.002 39.8145 123.002 40.0969V40.2963C123.002 40.5829 122.938 40.7947 122.81 40.9317C122.682 41.0688 122.499 41.1373 122.26 41.1373Z" fill="#FD0201"/>
<path d="M125.474 39.5363V41.754H124.745V38.6392H125.788L126.486 40.2651L127.195 38.6392H128.201V41.754H127.472V39.5363L127.227 40.1343L126.837 41.0376H126.109L125.719 40.1343L125.474 39.5363Z" fill="#FD0201"/>
<path d="M130.095 41.754V39.2746H131.339V41.754H132.068V38.6392H129.366V41.754H130.095Z" fill="#FD0201"/>
<path fill-rule="evenodd" clip-rule="evenodd" d="M134.644 41.6855C134.47 41.7686 134.272 41.8101 134.05 41.8101C133.711 41.8101 133.453 41.7271 133.278 41.5609C133.102 41.3948 133.014 41.1643 133.014 40.8694C133.014 40.7075 133.04 40.5611 133.092 40.4302C133.145 40.2994 133.228 40.1893 133.344 40.1001C133.459 40.0108 133.607 39.9422 133.79 39.8945C133.972 39.8467 134.195 39.8228 134.459 39.8228H134.986V39.6359C134.986 39.4864 134.946 39.3732 134.864 39.2964C134.782 39.2196 134.647 39.1812 134.459 39.1812C134.283 39.1812 134.155 39.2144 134.075 39.2808C133.996 39.3473 133.948 39.4345 133.931 39.5425H133.139C133.156 39.2642 133.27 39.0348 133.482 38.8541C133.693 38.6734 134.019 38.5831 134.459 38.5831C134.877 38.5831 135.192 38.6786 135.401 38.8697C135.61 39.0607 135.715 39.3161 135.715 39.6359V41.754H135.143L135.068 41.3242C134.959 41.482 134.818 41.6025 134.644 41.6855ZM134.176 41.2121C134.05 41.2121 133.953 41.1788 133.884 41.1124C133.815 41.0459 133.78 40.9566 133.78 40.8445C133.78 40.7033 133.83 40.5912 133.931 40.5081C134.031 40.425 134.207 40.3835 134.459 40.3835H134.986V40.477C134.986 40.5766 134.965 40.6701 134.924 40.7573C134.882 40.8445 134.825 40.9224 134.754 40.9909C134.683 41.0594 134.598 41.1134 134.499 41.1529C134.401 41.1923 134.293 41.2121 134.176 41.2121Z" fill="#FD0201"/>
<path d="M137.578 40.4832V41.754H136.849V38.6392H137.578V39.8477H138.948V38.6392H139.677V41.754H138.948V40.4832H137.578Z" fill="#FD0201"/>
<path d="M141.76 41.754L142.658 40.1343L142.941 39.5549V41.754H143.669V38.6392H142.752L141.854 40.2589L141.571 40.8383V38.6392H140.842V41.754H141.76Z" fill="#FD0201"/>
<path fill-rule="evenodd" clip-rule="evenodd" d="M145.853 40.7386L145.338 41.754H144.521L145.162 40.6015C144.969 40.5143 144.831 40.3939 144.747 40.2402C144.663 40.0866 144.621 39.9038 144.621 39.692C144.621 39.5259 144.648 39.3774 144.7 39.2466C144.752 39.1157 144.835 39.0057 144.948 38.9164C145.061 38.8271 145.209 38.7586 145.391 38.7108C145.573 38.6631 145.796 38.6392 146.06 38.6392H147.222V41.754H146.494V40.7448H145.953C145.92 40.7448 145.886 40.7428 145.853 40.7386ZM146.494 40.1592H146.06C145.805 40.1592 145.629 40.1198 145.532 40.0409C145.436 39.962 145.388 39.8457 145.388 39.692C145.388 39.5383 145.436 39.422 145.532 39.3431C145.629 39.2642 145.805 39.2248 146.06 39.2248H146.494V40.1592Z" fill="#FD0201"/>
<path fill-rule="evenodd" clip-rule="evenodd" d="M70.0085 3.24776H155L154.039 6.01653L71.4041 6.01606V22.5429H113.158L113.158 8.83624C113.158 8.10642 113.728 7.5085 114.45 7.45565L114.554 7.45185H120.73C128.36 7.45185 134.56 13.5215 134.689 21.0573L134.691 21.2957V28.4011C134.691 29.131 134.121 29.7289 133.399 29.7817L133.295 29.7855L124.936 29.7855C125.84 30.608 126.407 31.7892 126.407 33.1016C126.407 35.5865 124.375 37.6009 121.869 37.6009C119.363 37.6009 117.332 35.5865 117.332 33.1016C117.332 31.7892 117.899 30.608 118.803 29.7855L84.4492 29.7854C85.3532 30.6079 85.92 31.7891 85.92 33.1016C85.92 35.5865 83.8885 37.6009 81.3827 37.6009C78.8768 37.6009 76.8454 35.5865 76.8454 33.1016C76.8454 31.7891 77.4121 30.6079 78.3162 29.7854L48.2087 29.7853L46.4787 34.0885C44.8797 38.0646 41.9744 40.0915 37.9969 39.9495L37.7617 39.9386C34.363 39.7465 31.7648 36.8587 31.9585 33.4885C31.9785 33.14 32.0286 32.7939 32.1082 32.4539C32.8388 29.334 35.6008 27.1073 38.8131 27.0194L39.0103 27.0168L46.3163 27.0165L47.1463 24.9531L44.0541 24.9538C43.7043 24.9538 43.3568 24.9016 43.0233 24.7994L42.825 24.7321C41.0696 24.0771 40.1586 22.1699 40.7359 20.4195L40.7875 20.274L43.4056 13.3741H46.2773C46.2817 13.5152 46.2641 13.6588 46.2227 13.8004L46.1882 13.9031L43.4008 21.2491C43.265 21.6069 43.4475 22.006 43.8083 22.1407C43.8607 22.1602 43.9152 22.1734 43.9705 22.18L44.0541 22.185L48.2527 22.1843L51.7273 13.3741H54.6219C54.6208 13.5157 54.5968 13.6653 54.5457 13.8213L54.5102 13.9197L50.5028 24.0822L49.3221 27.0165H131.898L131.899 21.2957C131.899 15.2519 127.016 10.3389 120.95 10.2227L120.73 10.2206L115.95 10.2205L115.95 23.9273C115.95 24.6572 115.381 25.2551 114.658 25.3079L114.554 25.3117H70.0085C69.2725 25.3117 68.6695 24.747 68.6162 24.0306L68.6124 23.9273V4.63215C68.6124 3.90233 69.1819 3.30441 69.9043 3.25156L70.0085 3.24776ZM39.0103 29.7855L45.2029 29.7853L43.8851 33.0629L43.7983 33.2729C42.5953 36.1039 40.713 37.3322 37.9206 37.1743C36.0615 37.0693 34.6402 35.4896 34.7462 33.646C34.7571 33.4554 34.7845 33.2661 34.8281 33.0801C35.2798 31.151 37.0132 29.7855 39.0103 29.7855ZM79.6375 33.1016C79.6375 32.1459 80.4189 31.3711 81.3827 31.3711C82.3465 31.3711 83.1278 32.1459 83.1278 33.1016C83.1278 34.0573 82.3465 34.8321 81.3827 34.8321C80.4189 34.8321 79.6375 34.0573 79.6375 33.1016ZM121.869 31.3711C120.906 31.3711 120.124 32.1459 120.124 33.1016C120.124 34.0573 120.906 34.8321 121.869 34.8321C122.833 34.8321 123.614 34.0573 123.614 33.1016C123.614 32.1459 122.833 31.3711 121.869 31.3711Z" fill="#FD0201"/>
<path d="M61.0063 9.57512H57.9325L56.3064 13.2997L56.2691 13.3945L56.2474 13.4634L54.5079 17.5273L57.5259 17.519L58.5223 15.2312H60.6526L58.9653 18.8301L58.8827 18.9712C57.7969 20.9124 58.4445 23.3739 60.3754 24.5347C61.0301 24.9283 61.7811 25.1365 62.5467 25.1365H65.9308V22.3677H62.8218L62.6947 22.3619C62.484 22.3428 62.2799 22.2764 62.098 22.1671L62.0025 22.1043C61.4192 21.6861 61.2482 20.8867 61.628 20.2656L64.648 15.2312L65.323 15.2316L66.7973 12.515L59.7125 12.4625L61.0063 9.57512Z" fill="#FD0201"/>
</svg>
