<svg width="80" height="80" viewBox="0 0 80 80" fill="none" xmlns="http://www.w3.org/2000/svg">
<path fill-rule="evenodd" clip-rule="evenodd" d="M4.39404 8.08081L11.394 11.0808C11.6627 11.196 11.8655 11.4218 11.953 11.6965L11.9833 11.817L13.1336 18H63.3259L58.9616 33.2747L57.0386 32.7252L60.6741 20H13.5057L17.5987 42H35.0001V44H17.9708L19.8312 54H26.0001C28.7615 54 31.0001 56.2385 31.0001 59C31.0001 61.7614 28.7615 64 26.0001 64C23.2387 64 21.0001 61.7614 21.0001 59C21.0001 57.8743 21.3721 56.8356 21.9998 56H19.8312C18.9213 56 18.1335 55.3872 17.9003 54.5212L17.865 54.3658L10.1141 12.708L3.6062 9.9191L4.39404 8.08081ZM23.0001 59C23.0001 57.3431 24.3433 56 26.0001 56C27.657 56 29.0001 57.3431 29.0001 59C29.0001 60.6568 27.657 62 26.0001 62C24.3433 62 23.0001 60.6568 23.0001 59ZM28.0001 26H51.0001V28H28.0001V26ZM32.0001 34H23.0001V36H32.0001V34Z" fill="#ADB8C7"/>
<path fill-rule="evenodd" clip-rule="evenodd" d="M51 30C62.0457 30 71 38.9543 71 50C71 61.0457 62.0457 70 51 70C39.9543 70 31 61.0457 31 50C31 38.9543 39.9543 30 51 30ZM66.4817 46.1712C66.1075 45.9055 65.5976 45.9302 65.2509 46.2298L65.1606 46.3182L61.8214 50.0647L63.3288 51.3414L64.9911 49.4964C64.997 49.6638 65 49.8317 65 50C65 57.732 58.732 64 51 64C46.5828 64 42.5085 61.9419 39.8745 58.4997C39.5388 58.0611 38.9112 57.9776 38.4726 58.3132C38.034 58.6488 37.9505 59.2765 38.2861 59.7151C41.2947 63.6467 45.9534 66 51 66C59.8366 66 67 58.8366 67 50L66.9963 49.6512L66.9851 49.3033L68.9513 51.0696L70.2303 49.576L66.5729 46.2442L66.4817 46.1712ZM53.25 43H48V50.384L46 50.3846V52.3846L48 52.384V54H46V56H48V59H50V56H54V54H50V52.384L53.25 52.3846L53.4672 52.3798C55.9866 52.2677 58 50.2152 58 47.6923C58 45.1694 55.9866 43.1169 53.4672 43.0048L53.25 43ZM51 34C42.1634 34 35 41.1634 35 50L35.0076 50.498L35.0304 50.994L33.1005 49.2592L31.8214 50.7528L35.4789 54.0846L35.5701 54.1576C35.9443 54.4233 36.4542 54.3986 36.8009 54.099L36.8912 54.0105L40.2303 50.2641L38.7229 48.9874L37.0265 50.8689C37.0089 50.5806 37 50.2909 37 50C37 42.268 43.268 36 51 36C55.5762 36 59.7801 38.2101 62.3937 41.8627C62.7151 42.3118 63.3397 42.4154 63.7889 42.094C64.238 41.7726 64.3416 41.148 64.0202 40.6988C61.0349 36.5269 56.2284 34 51 34ZM53.25 45L53.4179 45.0049C54.8615 45.0899 56 46.2638 56 47.6923C56 49.1208 54.8615 50.2947 53.4179 50.3797L53.25 50.3846L50 50.384V45H53.25Z" fill="white"/>
</svg>
