<svg width="80" height="80" viewBox="0 0 80 80" fill="none" xmlns="http://www.w3.org/2000/svg">
<path fill-rule="evenodd" clip-rule="evenodd" d="M47.8021 9H32.1978L30.964 14.55L30.886 14.5772C30.0638 14.872 29.2573 15.2065 28.4689 15.5794L28.395 15.615L23.5966 12.5628L12.5628 23.5966L15.615 28.395L15.5794 28.4689C15.2065 29.2573 14.872 30.0638 14.5772 30.886L14.55 30.964L9 32.1978V47.8021L14.55 49.036L14.5775 49.1149C14.8723 49.9368 15.2067 50.7431 15.5795 51.5312L15.615 51.604L12.5628 56.4034L23.5966 67.4372L28.395 64.384L28.4689 64.4206C29.2573 64.7935 30.0638 65.128 30.886 65.4228L30.964 65.449L32.1978 71H47.8021L49.036 65.449L49.1149 65.4225C49.9368 65.1277 50.7431 64.7933 51.5312 64.4205L51.604 64.384L55.7267 67.0067L56.8002 65.3192L51.7272 62.0919L51.2201 62.3471L50.6761 62.6125C49.7643 63.0438 48.8263 63.4196 47.8667 63.7375L47.3281 63.9159L46.197 69H33.802L32.673 63.9162L32.1342 63.7378L31.5609 63.5401C30.6099 63.1991 29.6814 62.8006 28.7799 62.3471L28.2728 62.0919L23.876 64.888L15.111 56.123L17.9081 51.7272L17.6529 51.2201L17.3875 50.6761C16.9562 49.7643 16.5804 48.8263 16.2625 47.8667L16.0841 47.3281L11 46.197V33.802L16.0838 32.673L16.2622 32.1342L16.4599 31.5609C16.8009 30.6099 17.1994 29.6814 17.6529 28.7799L17.9081 28.2728L15.111 23.876L23.876 15.111L28.2728 17.9081L28.7799 17.6529L29.324 17.3874C30.2361 16.956 31.1744 16.5801 32.1342 16.2622L32.673 16.0838L33.802 11H46.197L47.3281 16.0841L47.8667 16.2625L48.4398 16.4602C49.3906 16.8011 50.3189 17.1995 51.2201 17.6529L51.7272 17.9081L56.123 15.111L64.888 23.876L62.0919 28.2728L62.3471 28.7799L62.6126 29.324C63.044 30.2361 63.4199 31.1744 63.7378 32.1342L63.9162 32.673L69 33.802V38.1223H71V32.1978L65.449 30.964L65.4228 30.886C65.128 30.0638 64.7935 29.2573 64.4206 28.4689L64.384 28.395L67.4372 23.5966L56.4034 12.5628L51.604 15.615L51.5312 15.5795C50.7431 15.2067 49.9368 14.8723 49.1149 14.5775L49.036 14.55L47.8021 9ZM56.997 39.677C56.8248 30.4372 49.2809 23 40 23C32.5404 23 25.9807 27.8345 23.8162 34.7817C23.3936 36.1382 23.2562 37.228 23.4395 38.0892L25.3957 37.6726L25.3766 37.5609C25.3143 37.0917 25.4213 36.3536 25.7257 35.3766C27.6299 29.2646 33.4164 25 40 25C48.2843 25 55 31.7157 55 40H57L56.997 39.677Z" fill="#ADB8C7"/>
<path fill-rule="evenodd" clip-rule="evenodd" d="M34.1861 33C41.5365 33 45.5018 36.692 45.5018 41.4669C45.5018 45.5035 43.1807 48.211 39.0219 49.4909C43.0839 49.9339 46.5657 52.346 46.5657 57.7609C46.5657 63.2743 42.1651 68 33.6542 68C28.5296 68 24.7763 66.0923 22.2165 63.0459L22 62.782L26.5456 58.3024C28.7217 60.4684 30.6077 61.4037 33.0739 61.4037C35.7819 61.4037 37.7646 59.8776 37.7646 57.0717C37.7646 54.0521 36.16 52.7125 32.9954 52.6441L32.7354 52.6413H29.9307L30.8978 46.7342H32.8321C35.6369 46.7342 37.1843 45.2574 37.1843 42.8945C37.1843 40.6301 35.5885 39.3994 33.1706 39.3994C30.9041 39.3994 28.9031 40.3453 27.1252 42.0215L26.8841 42.2546L22.6286 37.6765C25.7235 34.6245 29.5922 33 34.1861 33ZM62.2336 33C70.5027 33 75 39.2518 75 50.4754C75 61.699 70.5027 68 62.2336 68C53.9644 68 49.4188 61.699 49.4188 50.4754C49.4188 39.2025 53.9644 33 62.2336 33ZM55.4188 59.1956L66.253 42.8858L68.7802 44.4536L57.9226 60.7634L55.4188 59.1956ZM67.3762 51.6608C65.0128 51.6608 63.094 53.3222 63.094 55.943C63.094 58.5638 65.0128 60.2018 67.3762 60.2018C69.763 60.2018 71.635 58.5638 71.635 55.943C71.635 53.3222 69.763 51.6608 67.3762 51.6608ZM68.7568 55.943C68.7568 55.0304 68.4994 54.0944 67.3762 54.0944C66.253 54.0944 65.9722 55.007 65.9722 55.943C65.9722 56.8556 66.253 57.7682 67.3762 57.7682C68.4994 57.7682 68.7568 56.8556 68.7568 55.943ZM56.7292 43.5644C54.3658 43.5644 52.4704 45.2258 52.4704 47.8466C52.4704 50.4674 54.3658 52.1288 56.7292 52.1288C59.116 52.1288 60.988 50.4674 60.988 47.8466C60.988 45.2258 59.116 43.5644 56.7292 43.5644ZM58.1098 47.8466C58.1098 46.934 57.8524 45.998 56.7292 45.998C55.606 45.998 55.3252 46.934 55.3252 47.8466C55.3252 48.7592 55.606 49.6952 56.7292 49.6952C57.8524 49.6952 58.1098 48.7592 58.1098 47.8466Z" fill="white"/>
</svg>
