<svg width="80" height="80" viewBox="0 0 80 80" fill="none" xmlns="http://www.w3.org/2000/svg">
<path fill-rule="evenodd" clip-rule="evenodd" d="M21.7648 7H11.2289L19.2491 15.02V17.495L17.6331 19.111H15.1581L7.1377 11.0912V21.6271L13.2289 27.7183L20.9281 27.717L51.1801 57.969L51.1807 65.6701L57.2719 71.7613H65.8078L71.899 65.6701V57.1342L65.8078 51.043L58.0931 51.043L27.8551 20.805L27.856 13.0912L21.7648 7ZM16.0571 8.999H20.9351L25.8551 13.919V20.702L25.3151 21.0936L57.7428 53.5213L58.1481 53.043H64.9791L69.8981 57.962V64.841L64.9791 69.761H58.1001L53.1801 64.841L53.1807 57.1408L21.7579 25.718L14.0571 25.718L9.13706 20.798V15.919L14.3299 21.1118H18.4616L21.2495 18.3239V14.1922L16.0571 8.999ZM63.6057 56.5484L66.3936 59.3363V63.468L63.6057 66.2559H59.474L56.6861 63.468V59.3363L59.474 56.5484H63.6057ZM60.3021 58.548H62.7771L64.3931 60.164V62.639L62.7771 64.255H60.3021L58.6861 62.639V60.164L60.3021 58.548Z" fill="#ADB8C7"/>
<path fill-rule="evenodd" clip-rule="evenodd" d="M72 20.1118L59.8881 8H56.5849L54.3827 10.2022L69.7978 25.6172L72 23.4151V20.1118ZM68.6879 24.5199L55.477 11.309L52.1797 14.606L51.0795 13.5054L38.9677 25.6172L39.3337 25.5615C42.0718 25.1847 44.827 25.6928 47.2182 26.9654C45.98 29.762 44.2658 32.3237 42.1512 34.536L41.734 34.9627L41.3548 35.3344C38.1661 38.3977 34.2581 40.615 29.9867 41.78L28.0458 42.3089C24.8127 41.9541 21.5243 43.0608 19.1483 45.4366L11.4408 53.1441L18.8094 60.5134C19.0233 60.7469 19.2472 60.971 19.4805 61.185L26.8559 68.5591L34.5634 60.8516C36.6108 58.8096 37.76 56.0358 37.7565 53.1441C37.7565 52.743 37.7345 52.3454 37.6914 51.9529L38.22 50.0133L38.3648 49.5025C39.5637 45.4304 41.7248 41.7063 44.6656 38.6451L45.0372 38.266L45.464 37.8487C47.6762 35.7341 50.2379 34.0199 53.0363 32.7821C54.3637 35.2788 54.8591 38.1742 54.3827 41.0323L66.4946 28.9204L65.3907 27.817L68.6879 24.5199ZM26.8466 68.5544L22.443 64.1507L19.1402 67.4534L23.5439 71.8571L26.8466 68.5544ZM11.4346 53.1399L15.8382 57.5436L12.5355 60.8463L8.13184 56.4427L11.4346 53.1399ZM22.4516 48.7398L22.6368 48.5619C25.0802 46.3089 28.8885 46.3682 31.2602 48.7398C33.6926 51.1722 33.6926 55.116 31.2602 57.5484L30.1869 58.4088C27.7789 59.9355 24.5519 59.6487 22.4516 57.5484C20.3514 55.4482 20.0645 52.2215 21.5909 49.8135L22.4516 48.7398ZM54.3828 23.4151C53.1665 23.4151 52.1806 24.401 52.1806 25.6172C52.1806 26.8334 53.1665 27.8194 54.3828 27.8194C55.599 27.8194 56.5849 26.8334 56.5849 25.6172C56.5849 24.401 55.599 23.4151 54.3828 23.4151Z" fill="white"/>
</svg>
