<svg width="80" height="80" viewBox="0 0 80 80" fill="none" xmlns="http://www.w3.org/2000/svg">
<path fill-rule="evenodd" clip-rule="evenodd" d="M51.4338 9.56768C50.6157 8.3288 48.9633 7.92683 47.6605 8.67899L36.3164 15.2285H11.6571L11.444 15.2333C8.97085 15.3448 7 17.3851 7 19.8857V57.3714L7.00479 57.5846C7.11621 60.0577 9.15652 62.0285 11.6571 62.0285H28.8832V60.0285H11.6571L11.4891 60.0233C10.0999 59.9366 9 58.7825 9 57.3714V19.8857L9.00523 19.7176C9.09192 18.3284 10.2461 17.2285 11.6571 17.2285H32.8523L25.2844 21.5978L25.1868 21.662C25.0634 21.7537 24.9663 21.87 24.8984 22H14V24H66.4286V31H63.5C59.3579 31 56 34.3578 56 38.5C56 42.6421 59.3579 46 63.5 46H66.4286V57.3714L66.4233 57.5394C66.3367 58.9287 65.1825 60.0285 63.7714 60.0285H46.697V62.0285H63.7714L63.9846 62.0238C66.4577 61.9123 68.4286 59.872 68.4286 57.3714V46H71C71.5523 46 72 45.5523 72 45V32C72 31.4477 71.5523 31 71 31H68.4286V19.8857L68.4238 19.6725C68.3124 17.1994 66.2721 15.2285 63.7714 15.2285H54.7081L51.5244 9.71432L51.4338 9.56768ZM55.8628 17.2285L58.4692 21.7431C58.5169 21.8256 58.5514 21.912 58.5735 22H66.4286V19.8857C66.4286 18.4746 65.3287 17.3205 63.9395 17.2338L63.7714 17.2285H55.8628ZM56.3082 22L49.7924 10.7143C49.5812 10.3485 49.1331 10.2047 48.7538 10.3647L48.6605 10.411L28.5879 22H56.3082ZM63.5 44H69.999V33H63.5C60.5365 33 58.1205 35.3438 58.0044 38.2788L58 38.5C58 41.5375 60.4624 44 63.5 44ZM64.5 41C65.8807 41 67 39.8807 67 38.5C67 37.1193 65.8807 36 64.5 36C63.1193 36 62 37.1193 62 38.5C62 39.8807 63.1193 41 64.5 41Z" fill="#6E747A"/>
<path fill-rule="evenodd" clip-rule="evenodd" d="M56 52C56 61.9411 47.9411 70 38 70C28.0589 70 20 61.9411 20 52C20 42.0589 28.0589 34 38 34C47.9411 34 56 42.0589 56 52ZM48.9593 45.7937C48.5655 45.4064 47.9323 45.4117 47.5451 45.8055L36.457 57.079L30.9721 51.4841L30.8788 51.4C30.4895 51.0911 29.922 51.1132 29.558 51.4701C29.1636 51.8567 29.1574 52.4899 29.544 52.8842L35.7426 59.2068L35.8372 59.2919C36.2317 59.6039 36.8075 59.576 37.1696 59.2079L48.9711 47.2079L49.0534 47.113C49.3552 46.7181 49.3227 46.1512 48.9593 45.7937Z" fill="#009DFF"/>
</svg>
