<svg width="80" height="80" viewBox="0 0 80 80" fill="none" xmlns="http://www.w3.org/2000/svg">
<path fill-rule="evenodd" clip-rule="evenodd" d="M56.4703 27.0541L58.2544 26.1503L62.4899 34.512L52.477 71.8806L19.6355 63.0808L29.6484 25.7121L37.4972 20.5885L38.5905 22.2632L31.3816 26.9675L22.0843 61.6655L51.0621 69.4301L60.3596 34.7311L56.4703 27.0541Z" fill="#6E747A"/>
<path fill-rule="evenodd" clip-rule="evenodd" d="M45 29C43.8244 29 42.7673 28.4929 42.0354 27.6854C43.0614 27.7439 44.0183 27.5179 44.8385 26.9647C46.4395 25.8848 47.0794 23.8551 46.8656 21.4608C48.1349 22.1313 49 23.4646 49 25C49 27.2091 47.2091 29 45 29ZM55 15H44.5815C44.421 14.7353 44.2525 14.4719 44.0761 14.2105C40.72 9.23487 35.6459 6.62834 32.5363 8.72583C29.9834 10.4478 29.874 14.5849 31.7736 18.7642L29 22V61H61V22L55 15ZM33.6546 10.3839C32.2342 11.342 32.0828 14.0375 33.2314 17.0634L35 15H42.1907C39.3855 11.0399 35.5303 9.11877 33.6546 10.3839ZM41 25C41 25.1611 41.0095 25.3199 41.028 25.476C42.0905 25.8055 43.0367 25.7675 43.7201 25.3066C44.7524 24.6103 45.1145 22.9965 44.7944 21.0052C42.6808 21.1122 41 22.8598 41 25ZM43 34.5091H41V45.7949H39V47.7949H41V50H39V52H41V54.5091H43V52H45.5V50H43V47.7949H46.359L46.5921 47.7909C50.1519 47.668 53 44.7436 53 41.1539C53 37.4861 50.0267 34.5128 46.359 34.5128H43V34.5091ZM43 36.5128V45.7949H46.359C48.9221 45.7949 51 43.717 51 41.1539C51 38.6619 49.036 36.6286 46.5714 36.5176L46.359 36.5128H43Z" fill="#009DFF"/>
</svg>
