<svg width="80" height="80" viewBox="0 0 80 80" fill="none" xmlns="http://www.w3.org/2000/svg">
<path fill-rule="evenodd" clip-rule="evenodd" d="M20 9H22V13H58V9H60V13H64C68.4183 13 72 16.5817 72 21V28V30V62C72 66.4183 68.4183 70 64 70H16C11.5817 70 8 66.4183 8 62V30V28V21C8 16.5817 11.5817 13 16 13H20V9ZM58 15V19H60V15H64L64.2249 15.0041C67.4344 15.1224 70 17.7616 70 21V28H10V21L10.0041 20.7751C10.1224 17.5656 12.7616 15 16 15H20V19H22V15H58ZM10 62V30H70V62L69.9959 62.2249C69.8776 65.4344 67.2384 68 64 68H16L15.7751 67.9959C12.5656 67.8776 10 65.2384 10 62ZM21 37H17V41H21V37ZM17 45H21V49H17V45ZM27 45H31V49H27V45ZM27 37H31V41H27V37ZM17 53H21V57H17V53ZM27 53H31V57H27V53ZM35 37H39V41H35V37Z" fill="#6E747A"/>
<path fill-rule="evenodd" clip-rule="evenodd" d="M58 72C67.3888 72 75 64.3888 75 55C75 45.6112 67.3888 38 58 38C48.6112 38 41 45.6112 41 55C41 64.3888 48.6112 72 58 72ZM59 46V55H66V57H59H57V55V46H59Z" fill="#009DFF"/>
</svg>
