<svg width="80" height="80" viewBox="0 0 80 80" fill="none" xmlns="http://www.w3.org/2000/svg">
<path fill-rule="evenodd" clip-rule="evenodd" d="M72 70L60 55H50H30H20L8 70H18H62H72ZM59.039 57H51.6L55.6 62H63.039L59.039 57ZM54.639 64H25.36L22.16 68H57.839L54.639 64ZM26.96 62H53.039L49.039 57H30.96L26.96 62ZM24.4 62H16.96L20.96 57H28.4L24.4 62ZM22.8 64H15.36L12.16 68H19.6L22.8 64ZM67.839 68L64.639 64H57.2L60.4 68H67.839Z" fill="#6E747A"/>
<path fill-rule="evenodd" clip-rule="evenodd" d="M39.8406 8C47.0763 8 53.5807 11.4074 57.6849 17.3472C61.7688 23.257 62.7118 30.739 60.2074 37.3613C59.5444 39.1519 58.4831 40.9039 57.057 42.5568L41.2717 61.0983C40.9146 61.5182 40.3914 61.76 39.8406 61.76C39.2899 61.76 38.7667 61.5181 38.4096 61.0983L22.6199 42.5517C21.2001 40.9083 20.1374 39.1544 19.4688 37.3493C16.9694 30.739 17.9124 23.257 21.9964 17.3472C26.1005 11.4074 32.605 8 39.8406 8ZM29.3142 29.6795C29.3142 23.8748 34.0367 19.153 39.8406 19.153C45.6446 19.153 50.3671 23.8755 50.3671 29.6795C50.3671 35.4841 45.6452 40.2059 39.8406 40.2059C34.036 40.2059 29.3142 35.4841 29.3142 29.6795Z" fill="#009DFF"/>
</svg>
