<svg width="80" height="80" viewBox="0 0 80 80" fill="none" xmlns="http://www.w3.org/2000/svg">
<path fill-rule="evenodd" clip-rule="evenodd" d="M63.9945 42.8507C63.9182 41.8159 63.0544 41 62 41H55.0864V43H62V47H47V49H62V51H48V50H46V55H38H33V48H31V51H14V49H30.0584V47H14V44H26.635V42H14L13.8507 42.0055C12.8159 42.0818 12 42.9456 12 44V55L12.0055 55.1493C12.0818 56.1841 12.9456 57 14 57H18V60.7594C17.981 60.8365 17.9709 60.917 17.9709 61C17.9709 61.083 17.981 61.1635 18 61.2406V64.7594C17.981 64.8365 17.9709 64.917 17.9709 65C17.9709 65.083 17.981 65.1635 18 65.2406V68C18 69.1046 18.8954 70 20 70H38H50H68C69.1046 70 70 69.1046 70 68V57C70 55.8954 69.1046 55 68 55H64V43L63.9945 42.8507ZM48 55H50H62V53H48V55ZM31 53V55H20H14V53H31ZM20 57V60H37V57H20ZM39 57V68H49V57H39ZM51 57V60H68V57H62H51ZM68 68H51V66H68V68ZM68 62V64H51V62H68ZM37 66V68H20V66H37ZM37 64H20V62H37V64Z" fill="#6E747A"/>
<path fill-rule="evenodd" clip-rule="evenodd" d="M62 31C62 42.598 52.598 52 41 52C29.402 52 20 42.598 20 31C20 19.402 29.402 10 41 10C52.598 10 62 19.402 62 31ZM39 21.5091H37V32.7949H35V34.7949H37V37H35V39H37V41.5091H39V39H41.5V37H39V34.7949H42.359L42.5921 34.7909C46.1519 34.668 49 31.7435 49 28.1538C49 24.4861 46.0267 21.5128 42.359 21.5128H39V21.5091ZM39 23.5128V32.7949H42.359C44.9221 32.7949 47 30.717 47 28.1538C47 25.6619 45.036 23.6286 42.5714 23.5176L42.359 23.5128H39Z" fill="#009DFF"/>
</svg>
